<svg width="73" height="145" viewBox="0 0 73 145" xmlns="http://www.w3.org/2000/svg"><title>iphone</title><desc>Created with Sketch.</desc><g fill="none" fill-rule="evenodd"><g><g transform="translate(-62 -41) translate(63.686 42.616)"><path d="M69.744 133.585c0 4.574-3.858 8.28-8.617 8.28H8.617c-4.76 0-8.616-3.706-8.616-8.28V8.323C0 3.75 3.86.043 8.62.043h52.51c4.758 0 8.616 3.706 8.616 8.28v125.262zM4.828 18.642h60.05v103.095H4.828V18.642z" fill="#F5F5F5"/><path d="M41.31 13.332c0 .33-.236.594-.526.594H30c-.29 0-.526-.265-.526-.594v-1.336c0-.328.235-.594.526-.594h10.784c.29 0 .526.266.526.594v1.336z" stroke="#BDBDBD"/><ellipse stroke="#BDBDBD" cx="35.409" cy="6.214" rx="1.609" ry="1.554"/><ellipse stroke="#BDBDBD" cx="34.894" cy="131.533" rx="5.386" ry="5.179"/></g></g></g></svg>