<?xml version="1.0" encoding="UTF-8" standalone="no"?>
<svg width="101px" height="102px" viewBox="0 0 101 102" version="1.1" xmlns="http://www.w3.org/2000/svg" xmlns:xlink="http://www.w3.org/1999/xlink" xmlns:sketch="http://www.bohemiancoding.com/sketch/ns">
    <!-- Generator: Sketch 3.2 (9961) - http://www.bohemiancoding.com/sketch -->
    <title>LifeBelt</title>
    <desc>Created with Sketch.</desc>
    <defs></defs>
    <g id="Page-1" stroke="none" stroke-width="1" fill="none" fill-rule="evenodd" sketch:type="MSPage">
        <g id="mobile" sketch:type="MSLayerGroup" transform="translate(-3812.000000, -126.000000)">
            <g id="support" transform="translate(3680.000000, 4.000000)" sketch:type="MSShapeGroup">
                <g id="LifeBelt" transform="translate(132.000000, 122.000000)">
                    <circle id="Oval-146" stroke="#FAC901" stroke-width="3" cx="88" cy="18" r="4"></circle>
                    <circle id="Oval-147" stroke="#FAC901" stroke-width="3" cx="14" cy="84" r="4"></circle>
                    <circle id="Oval-148" stroke="#FAC901" stroke-width="3" cx="15" cy="16" r="4"></circle>
                    <circle id="Oval-149" stroke="#FAC901" stroke-width="3" cx="88" cy="83" r="4"></circle>
                    <path d="M50.5,99 C77.2858104,99 99,77.2858104 99,50.5 C99,23.7141896 77.2858104,2 50.5,2 C23.7141896,2 2,23.7141896 2,50.5 C2,77.2858104 23.7141896,99 50.5,99 Z M50.5,91 C72.8675324,91 91,72.8675324 91,50.5 C91,28.1324676 72.8675324,10 50.5,10 C28.1324676,10 10,28.1324676 10,50.5 C10,72.8675324 28.1324676,91 50.5,91 Z" id="Oval-32" fill="#F5F5F5"></path>
                    <rect id="Rectangle-696" fill="#EC5748" x="0" y="42" width="12" height="16" rx="4"></rect>
                    <rect id="Rectangle-697" fill="#EC5748" x="89" y="42" width="12" height="16" rx="4"></rect>
                    <rect id="Rectangle-698" fill="#EC5748" transform="translate(51.000000, 6.000000) rotate(-90.000000) translate(-51.000000, -6.000000) " x="45" y="-2" width="12" height="16" rx="4"></rect>
                    <rect id="Rectangle-699" fill="#EC5748" transform="translate(51.500000, 95.000000) rotate(-91.000000) translate(-51.500000, -95.000000) " x="45" y="87" width="13" height="16" rx="4"></rect>
                </g>
            </g>
        </g>
    </g>
</svg>