<?xml version="1.0" encoding="UTF-8" standalone="no"?>
<svg width="101px" height="102px" viewBox="0 0 101 102" version="1.1" xmlns="http://www.w3.org/2000/svg" xmlns:xlink="http://www.w3.org/1999/xlink" xmlns:sketch="http://www.bohemiancoding.com/sketch/ns">
    <!-- Generator: Sketch 3.2 (9961) - http://www.bohemiancoding.com/sketch -->
    <title>LifeBelt</title>
    <desc>Created with Sketch.</desc>
    <defs></defs>
    <g id="Page-1" stroke="none" stroke-width="1" fill="none" fill-rule="evenodd" sketch:type="MSPage">
        <g id="mobile" sketch:type="MSLayerGroup" transform="translate(-3812.000000, -126.000000)">
            <g id="support" transform="translate(3680.000000, 4.000000)" sketch:type="MSShapeGroup">
                <g id="LifeBelt" transform="translate(132.000000, 122.000000)">
                    <circle id="Oval-146" stroke="#FAC901" stroke-width="3" cx="88" cy="18" r="4"></circle>
                    <circle id="Oval-147" stroke="#FAC901" stroke-width="3" cx="14" cy="84" r="4"></circle>
                    <circle id="Oval-148" stroke="#FAC901" stroke-width="3" cx="15" cy="16" r="4"></circle>
                    <circle id="Oval-149" stroke="#FAC901" stroke-width="3" cx="88" cy="83" r="4"></circle>
                    <path d="M50.5,99 C77.2858104,99 99,77.2858104 99,50.5 C99,23.7141896 77.2858104,2 50.5,2 C23.7141896,2 2,23.7141896 2,50.5 C2,77.2858104 23.7141896,99 50.5,99 Z M50.5,91 C72.8675324,91 91,72.8675324 91,50.5 C91,28.1324676 72.8675324,10 50.5,10 C28.1324676,10 10,28.1324676 10,50.5 C10,72.8675324 28.1324676,91 50.5,91 Z" id="Oval-32" fill="#F5F5F5"></path>
                    <rect id="Rectangle-696" fill="#EC5748" x="0" y="42" width="12" height="16" rx="4"></rect>
                    <rect id="Rectangle-697" fill="#EC5748" x="89" y="42" width="12" height="16" rx="4"></rect>
                    <rect id="Rectangle-698" fill="#EC5748" transform="translate(51.000000, 6.000000) rotate(-90.000000) translate(-51.000000, -6.000000) " x="45" y="-2" width="12" height="16" rx="4"></rect>
                    <rect id="Rectangle-699" fill="#EC5748" transform="translate(51.500000, 95.000000) rotate(-91.000000) translate(-51.500000, -95.000000) " x="45" y="87" width="13" height="16" rx="4"></rect>
                    <path d="M48.2552084,56.9921875 C48.2682293,55.1041572 48.430988,53.7955766 48.7434896,53.0664062 C49.0559912,52.3372359 49.8762955,51.3737039 51.2044271,50.1757812 C52.4934961,48.6523361 53.4114556,47.4804729 53.9583334,46.6601562 C54.5052111,45.8398396 54.7786459,44.8502662 54.7786459,43.6914062 C54.7786459,42.311191 54.410811,41.2500037 53.6751302,40.5078125 C52.9394495,39.7656213 51.8880277,39.3945312 50.5208334,39.3945312 C49.3359316,39.3945312 48.3268271,39.7167937 47.4934896,40.3613281 C46.6601521,41.0058626 46.2434896,41.9531187 46.2434896,43.203125 L42.5716146,43.203125 L42.5130209,43.0859375 C42.4739582,40.9895729 43.2128831,39.3099021 44.7298177,38.046875 C46.2467524,36.7838479 48.1770716,36.1523438 50.5208334,36.1523438 C53.0859504,36.1523438 55.0781179,36.8066341 56.4973959,38.1152344 C57.9166738,39.4238347 58.6263021,41.2499883 58.6263021,43.59375 C58.6263021,45.2734459 58.1673223,46.8098889 57.249349,48.203125 C56.3313756,49.5963611 55.1171951,51.0221281 53.6067709,52.4804688 C52.9036423,53.1835973 52.4772143,53.8151014 52.327474,54.375 C52.1777337,54.9348986 52.1028646,55.8072857 52.1028646,56.9921875 L48.2552084,56.9921875 Z M52.2395834,65 L48.2161459,65 L48.2161459,60.9375 L52.2395834,60.9375 L52.2395834,65 Z" id="?" fill="#F5F5F5"></path>
                </g>
            </g>
        </g>
    </g>
</svg>