<?xml version="1.0" encoding="UTF-8" standalone="no"?><svg width="49" height="46" viewBox="0 0 49 46" xmlns="http://www.w3.org/2000/svg" xmlns:xlink="http://www.w3.org/1999/xlink"><svg width="16" height="25" viewBox="0 0 16 25" id="ui--components--page--facebook" y="21"><title>facebook</title><desc>Created with Sketch.</desc><defs><filter x="-50%" y="-50%" width="200%" height="200%" filterUnits="objectBoundingBox" id="aa"><feOffset in="SourceAlpha" result="shadowOffsetOuter1"/><feGaussianBlur stdDeviation="1" in="shadowOffsetOuter1" result="shadowBlurOuter1"/><feColorMatrix values="0 0 0 0 0 0 0 0 0 0 0 0 0 0 0 0 0 0 0.35 0" in="shadowBlurOuter1" result="shadowMatrixOuter1"/><feMerge><feMergeNode in="shadowMatrixOuter1"/><feMergeNode in="SourceGraphic"/></feMerge></filter></defs><g fill="none" fill-rule="evenodd"><g transform="translate(-1163 -60)" filter="url(#aa)" fill="#F5F5F5"><g><g transform="translate(1118 62)"><g transform="translate(47)"><path d="M11.25 11.2L12 7.7H8.25V4.9c0-1.08.588-1.4 2.25-1.4H12V0H9C5.946 0 3.75 1.704 3.75 4.9v2.8H0v3.5h3.75V21h4.5v-9.8h3z"/></g></g></g></g></g></svg><svg width="23" height="25" viewBox="0 0 23 25" id="ui--components--page--linkedin" x="26"><title>Group</title><desc>Created with Sketch.</desc><g fill="none" fill-rule="evenodd"><g transform="translate(-1194 -60)" fill="#F5F5F5"><g><g transform="translate(1118 62)"><g transform="translate(78 2.058)"><g transform="translate(0 -2.8)"><path d="M11.9 7v2.1C12.48 8 13.984 7 16.1 7c4.404 0 4.9 2.53 4.9 6.3V21h-4.2v-7c0-1.623.132-3.5-2.1-3.5-2.8 0-2.8 1.675-2.8 3.5v7H7.7V7h4.2z"/><path d="M.7 7h4.2v14H.7z"/><circle cx="2.8" cy="2.45" r="2.45"/></g></g></g></g></g></g></svg><svg width="26" height="21" viewBox="0 0 26 21" id="ui--components--page--twitter"><title>Bird</title><desc>Created with Sketch.</desc><defs><filter x="-50%" y="-50%" width="200%" height="200%" filterUnits="objectBoundingBox" id="ca"><feOffset in="SourceAlpha" result="shadowOffsetInner1"/><feGaussianBlur stdDeviation="1" in="shadowOffsetInner1" result="shadowBlurInner1"/><feComposite in="shadowBlurInner1" in2="SourceAlpha" operator="arithmetic" k2="-1" k3="1" result="shadowInnerInner1"/><feColorMatrix values="0 0 0 0 0 0 0 0 0 0 0 0 0 0 0 0 0 0 0.35 0" in="shadowInnerInner1" result="shadowMatrixInner1"/><feMerge><feMergeNode in="SourceGraphic"/><feMergeNode in="shadowMatrixInner1"/></feMerge></filter></defs><g fill="none" fill-rule="evenodd"><g transform="translate(-1118 -62)" filter="url(#ca)" fill="#F5F5F5"><g><g transform="translate(1118 62)"><g><path d="M26 3.115c-.958.412-2.39.96-3.467 1.085 1.104-.64 2.2-2.15 2.6-3.36-.84.485-1.808 1.138-2.796 1.49l-.67-.65C20.695.675 19.734 0 18.2 0 15.255 0 13 2.186 13 5.04c0 .335.04.588.095.803L13 5.88c-5.2 0-8.637-1.072-11.267-4.2-.46.763-.866 1.572-.866 2.52 0 1.794 1.168 3.27 2.6 4.2-.875-.028-1.882-.455-2.6-.84 0 2.503 3.628 5.403 6.066 5.88-.866.84-4.006.062-4.333 0 .68 2.055 2.868 3.317 5.2 3.36-1.824 1.384-4.027 2.108-6.527 2.108-.43 0-.855-.024-1.273-.07C2.36 20.303 5.653 21 8.667 21 18.48 21 23.4 13.552 23.4 6.72c0-.225.007-.618 0-.84 1.04-.73 1.882-1.73 2.6-2.765z"/></g></g></g></g></g></svg></svg>