<?xml version="1.0" encoding="UTF-8" standalone="no"?>
<svg width="260px" height="260px" viewBox="0 0 260 260" version="1.1" xmlns="http://www.w3.org/2000/svg" xmlns:xlink="http://www.w3.org/1999/xlink" xmlns:sketch="http://www.bohemiancoding.com/sketch/ns">
    <!-- Generator: Sketch 3.2 (9961) - http://www.bohemiancoding.com/sketch -->
    <title>img speed</title>
    <desc>Created with Sketch.</desc>
    <defs>
        <circle id="path-1" cx="87.4814815" cy="87.4814815" r="87.4814815"></circle>
    </defs>
    <g id="Page-1" stroke="none" stroke-width="1" fill="none" fill-rule="evenodd" sketch:type="MSPage">
        <g id="desktop" sketch:type="MSLayerGroup" transform="translate(-851.000000, -4246.000000)">
            <g id="about" transform="translate(2.000000, 2869.000000)">
                <g id="img-speed" transform="translate(849.000000, 1377.000000)">
                    <g id="Oval-116" fill="#0288D1" sketch:type="MSShapeGroup">
                        <circle id="Oval-114" cx="129.737892" cy="129.737892" r="129.424501"></circle>
                    </g>
                    <g id="face" transform="translate(45.018519, 45.018519)">
                        <mask id="mask-2" sketch:name="Mask" fill="white">
                            <use xlink:href="#path-1"></use>
                        </mask>
                        <use id="Mask" sketch:type="MSShapeGroup" xlink:href="#path-1"></use>
                        <g id="dial" mask="url(#mask-2)" sketch:type="MSShapeGroup">
                            <g transform="translate(-98.028894, -71.970581)">
                                <path d="M191.636302,264.172494 L184.88994,118.595006 L380.21245,159.76228 L191.636302,264.172494 Z" id="Triangle-1" fill="#E6473F" transform="translate(282.551195, 191.383750) scale(-1, 1) translate(-282.551195, -191.383750) "></path>
                                <path d="M389.786617,120.483619 L186.210582,160.692934 L227.579307,6.28550266 L389.786617,120.483619 Z" id="Triangle-3" fill="#F9C82E"></path>
                                <path d="M185.833058,160.106074 L52.7312805,234.683025 L0.227757022,11.7376637 L228.737233,0.139005991 L185.833058,160.106074 Z" id="Path-595" fill="#01C9A4"></path>
                            </g>
                        </g>
                        <path d="M86.8610454,156.349882 C125.581327,156.349882 156.970318,124.960891 156.970318,86.2406094 C156.970318,47.5203274 125.581327,16.131337 86.8610454,16.131337 C48.1407635,16.131337 16.751773,47.5203274 16.751773,86.2406094 C16.751773,124.960891 48.1407635,156.349882 86.8610454,156.349882 Z" id="Oval-120" fill="#E1E1E1" sketch:type="MSShapeGroup" mask="url(#mask-2)"></path>
                        <g id="Path-596-+-Oval-119" mask="url(#mask-2)" fill="#2B3E50" sketch:type="MSShapeGroup">
                            <g transform="translate(60.904912, 40.642238)">
                                <path d="M14.6146813,83.5668807 L89.7508621,14.2807749 C89.7508621,14.2807749 47.0511052,61.9568113 25.7012268,85.7948295 C24.0851404,87.5992565 20.8529676,91.2081104 20.8529676,91.2081104 L14.6146813,83.5668807 Z" id="Path-596" transform="translate(52.182772, 52.744443) rotate(60.000000) translate(-52.182772, -52.744443) "></path>
                                <circle id="Oval-119" cx="25.3356974" cy="45.5983714" r="8.68610454"></circle>
                            </g>
                        </g>
                    </g>
                </g>
            </g>
        </g>
    </g>
</svg>