<svg width="332" height="185" viewBox="0 0 332 185" xmlns="http://www.w3.org/2000/svg"><title>laptop</title><desc>Created with Sketch.</desc><defs><filter x="-50%" y="-50%" width="200%" height="200%" filterUnits="objectBoundingBox" id="a"><feOffset in="SourceAlpha" result="shadowOffsetOuter1"/><feGaussianBlur stdDeviation=".5" in="shadowOffsetOuter1" result="shadowBlurOuter1"/><feColorMatrix values="0 0 0 0 0 0 0 0 0 0 0 0 0 0 0 0 0 0 0.35 0" in="shadowBlurOuter1" result="shadowMatrixOuter1"/><feMerge><feMergeNode in="shadowMatrixOuter1"/><feMergeNode in="SourceGraphic"/></feMerge></filter></defs><g fill="none" fill-rule="evenodd"><g transform="translate(0 1)"><path d="M46.95 0c-6.466 0-11.977 5.324-11.977 11.918v156.835h261.575V11.918C296.548 5.323 291.058 0 284.57 0H46.95zM45.51 18.75h240.053v140.38H45.512V18.75z" fill="#2B3E50" filter="url(#a)"/><ellipse stroke="#F5F5F5" stroke-width="2" cx="166.24" cy="9.134" rx="1.916" ry="1.923"/><g><path d="M306.998 183.647H24.57c-14.68 0-24.57-5.055-24.57-7.205v-6.535c0-.646.64-1.167 1.435-1.167h328.7c.795 0 1.435.52 1.435 1.167v6.792c-.003 1.7-7.66 6.947-24.572 6.947z" fill="#F5F5F5"/><path d="M.24 175.71h330.44" stroke="#BDBDBD"/></g><path d="M201.69 171.98v1.486c0 1.058-2.075 1.377-3.646 1.377h-64.47c-1.653 0-3.744-.32-3.744-1.377v-1.485" fill="#BDBDBD"/></g></g></svg>