<svg width="741" height="247" viewBox="0 0 741 247" xmlns="http://www.w3.org/2000/svg" xmlns:xlink="http://www.w3.org/1999/xlink"><title>picture</title><desc>Created with Sketch.</desc><defs><path id="a" d="M.8 64.332L41.823.706h17.463l43.817 71.7L.8 64.332z"/><circle id="c" cx="25" cy="25" r="25"/><path id="e" d="M.876.752l101.372 141.965-64.563 4.352L.875.75z"/><path id="g" d="M87.215.205l70.616 165.452L.377 121.172 87.216.205z"/><path id="i" d="M.876.752l100.652 126.776-63.843 19.54L.875.753z"/><path id="k" d="M87.215.205l70.616 165.452L.377 121.172 87.216.205z"/><path id="m" d="M53.444.568l-42.356 72.73L.472 53.984 53.444.568z"/><path id="o" d="M1 78.932L49.13.36l40.923 54.723 24.173-36.603 89.816 94.53L1 78.93z"/><path id="q" d="M51.06.69L26.617 62.2.208 40.29 51.06.69z"/><circle id="s" cx="28.5" cy="28.5" r="28.5"/><circle id="u" cx="17" cy="17" r="17"/></defs><g fill="none" fill-rule="evenodd"><g><path fill="#02D1AA" d="M0 0h741v247H0z"/><circle stroke="#FCFFBE" stroke-width="20" fill="#FDDA2A" cx="458.5" cy="112.5" r="49.5"/><g><path d="M329.8 168.332l41.024-63.626h17.463l43.817 71.7-102.305-8.074z" fill="#8787AC"/><g transform="translate(329 104)"><mask id="b"><use xlink:href="#a"/></mask><use id="Mask" xlink:href="#a"/><path d="M50.88 8.21v73.32l83.502-13.126-31.203-78.707L61.716 8.36 57.83 7.07l-6.95 1.14z" fill="#576C8E" mask="url(#b)"/></g></g><g id="centered-tree" transform="translate(316 126)"><circle id="Oval-8" fill="#00B951" cx="25" cy="25" r="25"/><circle id="Oval-9" fill="#53DF74" cx="25.5" cy="25.5" r="12.5"/><g id="Rectangle-4"><mask id="d"><use xlink:href="#c"/></mask><use id="Mask" xlink:href="#c"/><path opacity=".37" fill="#000" mask="url(#d)" d="M25-7h45v63H25z"/></g></g><g><g id="mountain"><path d="M199.876 67.752L293.58 201.29h-59.904l-33.8-133.538z" id="Path-20" fill="#8987B3"/><g id="Path-21" transform="translate(199 67)"><mask id="f"><use xlink:href="#e"/></mask><use id="Mask" xlink:href="#e"/><path d="M5.845 40.782L33.56 29.716l-45.468-47.432L5.845 40.782z" fill="#E1DDD9" mask="url(#f)"/></g><path d="M199.215 68.205l57.25 135.63-144.09-14.663 86.84-120.967z" id="Path-17" fill="#A5CFEC"/><g id="Path-18" transform="translate(112 68)"><mask id="h"><use xlink:href="#g"/></mask><use id="Mask" xlink:href="#g"/><path d="M49.35 39.41l20.27-4.577 10.286 5.583L91.88 32.82l7.976 4.805 28.823-11.443-34.91-41.5-44.42 54.73z" fill="#fff" mask="url(#h)"/></g></g><g id="mountain"><path d="M275.876 92.752l83.24 106.482-59.01 5.212-24.23-111.694z" fill="#8987B3"/><g transform="translate(275 92)"><mask id="j"><use xlink:href="#i"/></mask><use id="Mask" xlink:href="#i"/><path d="M5.953 42.4L21.013 8.33l-32.92-26.044L5.952 42.4z" fill="#E1DDD9" mask="url(#j)"/></g><path d="M275.215 93.205l45.873 108.106h-121.75l75.877-108.105z" fill="#A5CFEC"/><g transform="translate(188 93)"><mask id="l"><use xlink:href="#k"/></mask><use id="Mask" xlink:href="#k"/><path d="M64.354 12.046L75.09 24.592l7.902-3.542h6.023l9.847 7.516 9.102-16.52L93.77-15.32 64.355 12.047z" fill="#fff" mask="url(#l)"/></g></g><g id="mountain"><path d="M283.582 135.206l-60.575 4.63-52.52 50.83 81.29 1.68 31.805-57.14z" fill="#A5CFEC"/><path d="M284.977 134.987l63.66 32.38 26.002 18.25-137.54-1.44 47.877-49.19z" fill="#8987B3"/></g><g id="mountain"><path d="M183.822 148.592l-73.99 49.905 47.647 4.94 26.342-54.845z" id="Path-32" fill="#F9FFFB"/><path d="M184.523 148.527l-46.276 51.828 108.53-.55-62.254-51.278z" id="Path-31" fill="#8C88B5"/></g><g id="mountain"><path d="M233.822 144.592l-73.99 49.905 47.647 4.94 26.342-54.845z" fill="#F9FFFB"/><path d="M234.523 144.527l-46.276 51.828 108.53-.55-62.254-51.278z" fill="#8C88B5"/></g><g id="mountain"><path d="M525.444 85.568l-18.032 76.505-34.94-23.09 52.972-53.415z" fill="#A9CFED"/><path d="M590.43 104.942l-22.152 53.842-33.057-20.51 55.21-33.332z" fill="#D7D0E0"/><path d="M448.618 209.766l76.51-123.407 40.925 54.723 24.173-36.603 89.816 94.53-231.424 10.756z" fill="#8987B3"/><g transform="translate(471 86)"><mask id="n"><use xlink:href="#m"/></mask><use id="Mask" xlink:href="#m"/><path d="M30.364 19.002l8.99 15.554 46.442-44.783-56.592 4.922 1.16 24.307z" fill="#FCFCFE" mask="url(#n)"/></g><g transform="translate(476 86)"><mask id="p"><use xlink:href="#o"/></mask><use id="Mask" xlink:href="#o"/><path d="M27.542 31.258l19.4-7.585 10.103 8.1 3.66-8.975 13.35 8.46-32.24-40.593-14.273 40.593z" fill="#DFE1DA" mask="url(#p)"/></g></g><g><path d="M425.72 185.333l44.485-71.177 59.238 71.584 22.466-35.3 32.444 20.58 18.112-11.83 65.994 30.698-237.46 4.15-5.28-8.705z" fill="#5B6B8F"/><path d="M460.305 129.995l9.9-15.84 9.573 11.57-4.14 5.224-6.795 1.095-4.512 2.29-4.025-4.34z" fill="#E4E1D5"/><path d="M470.06 114.69l-24.442 61.51-26.41-21.91 50.85-39.6z" fill="#888AB7"/><g transform="translate(109 67) translate(310 47)"><mask id="r"><use xlink:href="#q"/></mask><use id="Mask" xlink:href="#q"/><path d="M33.968 8.243l10.024 9.487L61.117-2.827 47.563-5.51 33.968 8.243z" fill="#FFFEFB" mask="url(#r)"/></g></g></g><g transform="translate(71 129)"><g transform="translate(8)"><circle id="Oval-8" fill="#00B951" cx="28.5" cy="28.5" r="28.5"/><circle id="Oval-9" fill="#53DF74" cx="29.07" cy="29.07" r="14.25"/><g id="Rectangle-4"><mask id="t"><use xlink:href="#s"/></mask><use id="Mask" xlink:href="#s"/><path opacity=".37" fill="#000" mask="url(#t)" d="M28.5-7.98h51.3v71.82H28.5z"/></g></g><g transform="translate(288 17)"><circle fill="#00B951" cx="17" cy="17" r="17"/><g><mask id="v"><use xlink:href="#u"/></mask><use xlink:href="#u"/><path opacity=".37" fill="#000" mask="url(#v)" d="M17-4.76h30.6v42.84H17z"/></g><circle fill="#53DF74" cx="17.34" cy="17.34" r="8.5"/></g><circle id="tree" fill="#00BA55" cx="73" cy="53" r="17"/><circle id="tree" fill="#0C9056" cx="124" cy="54" r="13"/><circle id="tree" fill="#6BD558" cx="574.5" cy="54.5" r="19.5"/><circle id="tree" fill="#0C9056" cx="290.5" cy="52.5" r="18.5"/><circle id="tree" fill="#00BA55" cx="330.5" cy="55.5" r="27.5"/><g id="oval-tree"><path d="M13 17.676C5.253 22.772 0 32.65 0 44c0 11.35 5.253 21.228 13 26.324V17.676z" id="Oval-17" fill="#7EEC96"/><path d="M13 70c7.747-5.095 13-14.973 13-26.324 0-11.35-5.253-21.228-13-26.324v52.65z" id="Oval-18" fill="#366A4F"/></g><g id="oval-tree"><path d="M258 15.676C250.253 20.772 245 30.65 245 42c0 11.35 5.253 21.228 13 26.324V15.676z" id="Oval-17" fill="#7EEC96"/><path d="M258 68c7.747-5.095 13-14.973 13-26.324 0-11.35-5.253-21.228-13-26.324v52.65z" id="Oval-18" fill="#366A4F"/></g><g id="oval-tree"><path d="M497 14.676C489.253 19.772 484 29.65 484 41c0 11.35 5.253 21.228 13 26.324V14.676z" id="Oval-17" fill="#7EEC96"/><path d="M497 67c7.747-5.095 13-14.973 13-26.324 0-11.35-5.253-21.228-13-26.324v52.65z" id="Oval-18" fill="#366A4F"/></g><g><path d="M272.667 29.188C267.502 32.802 264 39.806 264 47.855c0 8.048 3.502 15.052 8.667 18.666V29.19z" id="Oval-17" fill="#7EEC96"/><path d="M273.167 68.75c5.463-3.822 9.166-11.23 9.166-19.743 0-8.513-3.703-15.92-9.166-19.744V68.75z" id="Oval-18" fill="#366A4F"/></g><g fill="#7EEC96"><path d="M513.26 35.036c-3.73 3.15-6.26 9.257-6.26 16.273s2.53 13.122 6.26 16.272V35.036z"/><path d="M512.62 69.654c3.946-3.332 6.62-9.79 6.62-17.212 0-7.422-2.674-13.88-6.62-17.212v34.424z"/></g><circle fill="#356951" cx="229.5" cy="53.5" r="25.5"/></g><path fill="#FFEBB2" d="M55 182h637v11H55z"/><g><path d="M565.066 196.646l5.708-10.437 4.918-1.893 8.027 13.158-18.654-.83z" id="stone" fill="#A18C46"/><path d="M176.894 195.133l4.85-8.27 15.823-2.215 5.456 12.237-26.13-1.752z" id="stone" fill="#93611D"/><path d="M165.246 195.594l3.703-7.46h8.008l6.53 6.532-18.242.928z" id="stone" fill="#E19C49"/><path d="M313.605 195.065l6.962-8.456 10.444.282 12.326 11.455-29.73-3.282z" fill="#DF9C42"/><path d="M362.825 194.31l2.26-6.762h5.056l7.965 3.033-3.388 7.305-11.892-3.574z" fill="#95611F"/><path d="M611.654 197.273l6.366-11.62h7.5l9.977 10.97-23.843.65z" fill="#CBAC6A"/><g><path d="M571.574 198.585l14.466-24.013 20.864 5.682 6.33 19.534-41.66-1.203z" fill="#CAAA6A"/><path d="M606.81 180.278l20.005 15.178-17.65-1.687-2.354-13.492z" fill="#A58B4B"/></g></g><rect fill="#09F0F0" x="34" y="193" width="675" height="20" rx="8"/><g><path d="M242.652 187.572l20.363-43.02-.5 36.9-19.863 6.12z" fill="#FF86BE"/><path d="M239.642 189.326h49.86v6.03h-44.123l-5.738-6.03z" fill="#7B584B"/><path d="M289.805 187.32c-4.837-18.276-14.112-33.5-25.805-43.09v43.09h25.805z" fill="#fff"/></g><g id="house"><g id="roof"><path d="M403.465 159.958l27.28-27.28 27.146 27.144-54.425.136z" id="Path-13" fill="#FFEE9C"/><path d="M430.746 159.822v-27.145l27.145 27.145h-27.144z" id="Path-14" fill="#FFBE48"/><path id="Rectangle-15" fill="#FFEE9C" d="M403 159h55v2h-55z"/><path id="Rectangle-23" fill="#FFEE9C" d="M405 160h52v2h-52z"/></g><g id="walls"><path id="Rectangle-16" fill="#8A5D35" d="M405 161h52v19h-52z"/><path id="Rectangle-17" fill="#8A5D35" d="M405 178h5v15h-5z"/><path id="Rectangle-18" fill="#8A5D35" d="M452 178h5v15h-5z"/><path id="Rectangle-24" fill="#FEAD29" d="M405 163h52v14h-52z"/></g><g id="window"><path id="Rectangle-25" fill="#845533" d="M415 164h11v11h-11z"/><path id="Rectangle-26" fill="#E7C9A0" d="M417 166h7v7h-7z"/></g><g id="window"><path id="Rectangle-25" fill="#845533" d="M436 164h11v11h-11z"/><path id="Rectangle-26" fill="#FFFBF4" d="M438 166h7v7h-7z"/></g><g id="stairs" fill="#8A5D35"><path id="Rectangle-19" d="M422 179h2v14h-2z"/><path id="Rectangle-21" d="M421 182h20v2h-20z"/><path id="Rectangle-22" d="M421 188h20v2h-20z"/><path id="Rectangle-20" d="M438 179h2v14h-2z"/></g></g><g><g><path d="M492.465 159.958l27.28-27.28 27.146 27.144-54.425.136z" fill="#FFEE9C"/><path d="M519.746 159.822v-27.145l27.145 27.145h-27.144z" fill="#FFBE48"/><path fill="#FFEE9C" d="M492 159h55v2h-55z"/><path fill="#FFEE9C" d="M494 160h52v2h-52z"/></g><g><path fill="#8A5D35" d="M494 161h52v19h-52z"/><path fill="#8A5D35" d="M494 178h5v15h-5z"/><path fill="#8A5D35" d="M541 178h5v15h-5z"/><path fill="#DF8C2F" d="M494 163h52v14h-52z"/></g><g id="window"><path id="Rectangle-25" fill="#845533" d="M525 164h11v11h-11z"/><path id="Rectangle-26" fill="#E7C9A0" d="M527 166h7v7h-7z"/></g><g><path fill="#845533" d="M505 164h11v11h-11z"/><path fill="#FFFBF4" d="M507 166h7v7h-7z"/></g><g fill="#8A5D35"><path d="M511 179h2v14h-2z"/><path d="M510 182h20v2h-20z"/><path d="M510 188h20v2h-20z"/><path d="M527 179h2v14h-2z"/></g></g><g transform="translate(243 36)" fill="#fff"><rect y="23" width="92" height="18" rx="8"/><rect x="103" width="92" height="20" rx="8"/><rect x="281" y="23" width="70" height="18" rx="8"/></g></g></g></svg>