<?xml version="1.0" encoding="UTF-8" standalone="no"?>
<svg width="20px" height="20px" viewBox="0 0 20 20" version="1.1" xmlns="http://www.w3.org/2000/svg" xmlns:xlink="http://www.w3.org/1999/xlink" xmlns:sketch="http://www.bohemiancoding.com/sketch/ns">
    <!-- Generator: Sketch 3.2 (9961) - http://www.bohemiancoding.com/sketch -->
    <title>Shape</title>
    <desc>Created with Sketch.</desc>
    <defs></defs>
    <g id="Page-1" stroke="none" stroke-width="1" fill="none" fill-rule="evenodd" sketch:type="MSPage">
        <g id="mobile" sketch:type="MSLayerGroup" transform="translate(-630.000000, -41.000000)" fill="#F5F5F5">
            <g id="home-–-menu-unfolded" transform="translate(416.000000, 0.000000)" sketch:type="MSShapeGroup">
                <g id="navbar" transform="translate(1.000000, 24.000000)">
                    <g id="ABOUT" transform="translate(180.000000, 0.000000)">
                        <g id="ic_info_outline_48px" transform="translate(33.000000, 17.000000)">
                            <path d="M8.5,16 L11.5,16 L11.5,8 L8.5,8 L8.5,16 L8.5,16 Z M10,0 C4.475,0 0,4.475 0,10 C0,15.525 4.475,20 10,20 C15.525,20 20,15.525 20,10 C20,4.475 15.525,0 10,0 L10,0 Z M2.5,10 C2.5,5.865625 5.865625,2.5 10,2.5 C14.134375,2.5 17.5,5.865625 17.5,10 C17.5,14.134375 14.134375,17.5 10,17.5 C5.865625,17.5 2.5,14.134375 2.5,10 Z M8.5,7 L11.5,7 L11.5,4 L8.5,4 L8.5,7 L8.5,7 Z" id="Shape"></path>
                        </g>
                    </g>
                </g>
            </g>
        </g>
    </g>
</svg>