<?xml version="1.0" encoding="UTF-8" standalone="no"?>
<svg width="36px" height="40px" viewBox="0 0 36 40" version="1.1" xmlns="http://www.w3.org/2000/svg" xmlns:xlink="http://www.w3.org/1999/xlink" xmlns:sketch="http://www.bohemiancoding.com/sketch/ns">
    <!-- Generator: Sketch 3.2 (9961) - http://www.bohemiancoding.com/sketch -->
    <title>share</title>
    <desc>Created with Sketch.</desc>
    <defs></defs>
    <g id="Page-1" stroke="none" stroke-width="1" fill="none" fill-rule="evenodd" sketch:type="MSPage">
        <g id="share" sketch:type="MSLayerGroup" transform="translate(-6.000000, -4.000000)">
            <path d="M0,0 L48,0 L48,48 L0,48 L0,0 Z" id="Shape" sketch:type="MSShapeGroup"></path>
            <path d="M36,32.17 C34.48,32.17 33.11,32.76 32.07,33.71 L17.82,25.4 C17.93,24.95 18,24.48 18,24 C18,23.52 17.93,23.05 17.82,22.6 L31.92,14.37 C32.99,15.37 34.42,15.99 36,15.99 C39.31,15.99 42,13.3 42,9.99 C42,6.68 39.31,3.99 36,3.99 C32.69,3.99 30,6.68 30,9.99 C30,10.47 30.07,10.94 30.18,11.39 L16.08,19.62 C15.01,18.62 13.58,18 12,18 C8.69,18 6,20.69 6,24 C6,27.31 8.69,30 12,30 C13.58,30 15.01,29.38 16.08,28.38 L30.33,36.69 C30.23,37.11 30.17,37.55 30.17,38 C30.17,41.22 32.78,43.83 36,43.83 C39.22,43.83 41.83,41.22 41.83,38 C41.83,34.78 39.22,32.17 36,32.17 L36,32.17 Z" id="Shape" fill="#F5F5F5" sketch:type="MSShapeGroup"></path>
        </g>
    </g>
</svg>