<?xml version="1.0" encoding="UTF-8" standalone="no"?>
<svg width="20px" height="20px" viewBox="0 0 20 20" version="1.1" xmlns="http://www.w3.org/2000/svg" xmlns:xlink="http://www.w3.org/1999/xlink" xmlns:sketch="http://www.bohemiancoding.com/sketch/ns">
    <!-- Generator: Sketch 3.2 (9961) - http://www.bohemiancoding.com/sketch -->
    <title>Shape</title>
    <desc>Created with Sketch.</desc>
    <defs></defs>
    <g id="Page-1" stroke="none" stroke-width="1" fill="none" fill-rule="evenodd" sketch:type="MSPage">
        <g id="mobile" sketch:type="MSLayerGroup" transform="translate(-722.000000, -39.000000)" fill="#F5F5F5">
            <g id="home-–-menu-unfolded" transform="translate(416.000000, 0.000000)" sketch:type="MSShapeGroup">
                <g id="navbar" transform="translate(1.000000, 24.000000)">
                    <g id="SUPPORT" transform="translate(285.000000, 5.000000)">
                        <g id="lifesaver5" transform="translate(20.000000, 10.000000)">
                            <path d="M0,10 C0,15.5140206 4.48618557,20 10,20 C15.5138144,20 20,15.5140206 20,10 C20,4.48597938 15.5138144,0 10,0 C4.48618557,0 0,4.48597938 0,10 Z M6.31558583,10 C6.31558583,7.96837139 7.96837139,6.31558583 10,6.31558583 C12.0316286,6.31558583 13.6844142,7.96837139 13.6844142,10 C13.6844142,12.0316286 12.0316286,13.6844142 10,13.6844142 C7.96837139,13.6844142 6.31558583,12.0316286 6.31558583,10 L6.31558583,10 Z M15,12.5756701 C15.378314,11.7843299 15.5885653,10.9136082 15.5885653,10 C15.5885653,9.08639175 15.378314,8.2156701 15,7.4243299 L16.8009683,5.81340206 C17.5645124,7.05690722 18,8.48371134 18,10 C18,11.5162887 17.5645124,12.9428866 16.8007377,14.1870103 L15,12.5756701 L15,12.5756701 Z M14.1870103,3.23396725 L12.5760825,5.03488926 C11.7845361,4.6564029 10.9138144,4.44618392 10.0002062,4.44618392 C9.08659794,4.44618392 8.21587629,4.6564029 7.4243299,5.03488926 L5.81340206,3.23396725 C7.0571134,2.47030993 8.48371134,2.03488926 10,2.03488926 C11.5162887,2.03488926 12.9428866,2.47030993 14.1870103,3.23396725 L14.1870103,3.23396725 Z M3.23408131,5.81319588 L5.03486496,7.42412371 C4.65640768,8.21546392 4.44620485,9.08618557 4.44620485,9.99979381 C4.44620485,10.9138144 4.65640768,11.7839175 5.03509545,12.5756701 L3.2343118,14.1863918 C2.47025218,12.9428866 2.03509545,11.5162887 2.03509545,10 C2.03509545,8.48371134 2.47025218,7.05690722 3.23408131,5.81319588 L3.23408131,5.81319588 Z M5.81319588,16.8009683 L7.42412371,15 C8.2156701,15.378314 9.08618557,15.5885653 9.99979381,15.5885653 C10.9134021,15.5885653 11.7839175,15.378314 12.5754639,15 L14.1863918,16.8009683 C12.9428866,17.5645124 11.5160825,18 9.99979381,18 C8.48371134,18 7.0571134,17.5647429 5.81319588,16.8009683 L5.81319588,16.8009683 Z" id="Shape"></path>
                        </g>
                    </g>
                </g>
            </g>
        </g>
    </g>
</svg>