<svg width="233" height="225" viewBox="0 0 233 225" xmlns="http://www.w3.org/2000/svg"><title>Death Star 2</title><desc>Created with Sketch.</desc><g fill="none" fill-rule="evenodd"><g stroke="#00446A" stroke-width="9"><g transform="translate(-1881 -2189) translate(1886 2192)"><path d="M108 2h-.5C48.13 2 0 50.13 0 109.5S48.13 217 107.5 217h.5V108.997l-.5.002C77.953 109 54 85.047 54 55.5S77.953 2 107.5 2c.167 0 .334 0 .5.002z"/><path d="M52.005 111c.42 58.52 25.306 105.744 55.995 106V111H52.005z"/><path d="M0 110.5h215.507" id="Path-387"/><circle cx="107.5" cy="55.5" r="53.5"/><circle cx="107.5" cy="55.5" r="13.5"/><path d="M108.24 217.5h38.26"/><path d="M109.827 2H161.5"/><path d="M157.413 55.5h70.347"/><path d="M107.827 164H191.5"/><path d="M107.827 190h70.346"/><path d="M107.827 138h70.346"/><path d="M149.827 86H194.5"/><path d="M155.827 29.5H206.5"/></g></g></g></svg>