<?xml version="1.0" encoding="UTF-8" standalone="no"?>
<svg width="21px" height="29px" viewBox="0 0 21 29" version="1.1" xmlns="http://www.w3.org/2000/svg" xmlns:xlink="http://www.w3.org/1999/xlink" xmlns:sketch="http://www.bohemiancoding.com/sketch/ns">
    <!-- Generator: Sketch 3.2 (9961) - http://www.bohemiancoding.com/sketch -->
    <title>link</title>
    <desc>Created with Sketch.</desc>
    <defs></defs>
    <g id="Page-1" stroke="none" stroke-width="1" fill="none" fill-rule="evenodd" sketch:type="MSPage">
        <g id="mobile" sketch:type="MSLayerGroup" transform="translate(-1268.000000, -368.000000)" fill="#F5F5F5">
            <g id="waiting-for-recevier---code" transform="translate(1242.000000, 0.000000)" sketch:type="MSShapeGroup">
                <g id="link" transform="translate(26.000000, 368.000000)">
                    <path d="M19.688906,4.84475208 L16.1767009,1.29805208 C15.3481282,0.46091875 14.2456581,0 13.0736068,0 C11.9014957,0 10.7990256,0.46091875 9.97051282,1.2981125 L3.02824786,8.30753333 C1.31809402,10.03545 1.31809402,12.8473625 3.0287265,14.5752792 L6.54081197,18.1218583 C7.39612821,18.9856354 8.51983761,19.417675 9.64354701,19.417675 C10.7676752,19.417675 11.8917436,18.9856354 12.7480769,18.1218583 L14.5836325,16.2677917 L14.5947607,16.2565542 L14.581359,16.2430208 L12.6028718,14.2460083 L12.5908462,14.233925 L12.5806752,14.2441354 L10.7451197,16.098625 C10.1373162,16.7113708 9.15061538,16.7109479 8.54382906,16.0991083 L5.03222222,12.5525292 C4.42537607,11.9397229 4.42537607,10.9428479 5.03174359,10.3301021 L11.9734701,3.32074167 C12.2671709,3.02415625 12.6582137,2.86072917 13.0736068,2.86072917 C13.4891197,2.86072917 13.8800427,3.02415625 14.1738034,3.32074167 L17.6858889,6.86744167 C17.9754017,7.16028125 18.141906,7.565375 18.141906,7.97886667 C18.141906,8.39235833 17.9758803,8.79696875 17.6858889,9.08980833 L15.8839573,10.9094375 L17.8873932,12.9321271 L19.6883675,11.1129813 C20.5178974,10.2763313 20.974812,9.16303333 20.974812,7.97892708 C20.974812,6.79524375 20.5183761,5.68194583 19.688906,4.84475208 L19.688906,4.84475208 Z" id="Shape"></path>
                    <path d="M14.4618803,10.8214104 C13.6328889,9.98427708 12.5308974,9.52329792 11.3583077,9.52329792 C10.1857778,9.52329792 9.0837265,9.98427708 8.25473504,10.8214104 L6.45370085,12.6406771 L8.45671795,14.6633667 L10.2576923,12.8441 C10.5518718,12.5475146 10.9423761,12.3840875 11.3583077,12.3840875 C11.7741795,12.3840875 12.1647436,12.547575 12.4589231,12.8441 L15.9705897,16.3903167 C16.5774359,17.0030625 16.5774359,18.0004208 15.9705897,18.6131062 L9.02982051,25.6221042 C8.44140171,26.2153354 7.41694872,26.2153354 6.82852991,25.6221042 L3.31692308,22.0760083 C3.02316239,21.779 2.86138462,21.3846 2.86138462,20.9646437 C2.86138462,20.5445667 3.02316239,20.1502271 3.31692308,19.8530979 L5.11837607,18.0344354 L3.1154188,16.0117458 L1.31396581,17.8304687 C0.484974359,18.6677229 0.0284786325,19.7805375 0.0284786325,20.9646437 C0.0284786325,22.14875 0.484974359,23.2615042 1.31396581,24.0986979 L4.82557265,27.6447937 C5.65468376,28.4819875 6.75667521,28.9429667 7.92926496,28.9429667 C9.10179487,28.9429667 10.2037265,28.4819875 11.0328376,27.6447937 L17.9736068,20.6357958 C19.6851966,18.9078792 19.6851966,16.0956042 17.9736068,14.3676875 L14.4618803,10.8214104 L14.4618803,10.8214104 Z" id="Shape"></path>
                </g>
            </g>
        </g>
    </g>
</svg>