<svg xmlns="http://www.w3.org/2000/svg" width="669" height="253" viewBox="0 0 669 253"><title>Berlin_Germany_Skyline_clip_art</title><desc>Created with Sketch.</desc><g fill-rule="evenodd" fill="none"><g fill="#000"><g><path d="M587.238.214c-.1 0-.2.1-.4.2v11.7l-.1 21.6-.4 2.5.1 18.6-.2 1.9v4.3l-.5 2.5h-3v1.1h.5v12.8h-.5l-.3 1c-3.2 1.7-5.5 5.2-5.5 9.2 0 4.7 3.5 8.6 7.8 9.9v1.5h-1v1.6h1v.5h-1v1.5h1c-.4 33.6-2 67.7-3.1 101.1H593.038c-1.2-33.4-2.7-67.5-3.1-101.1h1v-1.5h-1v-.5h1v-1.6h-1v-1.5c4.3-1.3 7.7-5.2 7.7-9.9 0-4-2.2-7.5-5.5-9.2l-.2-1h-.5v-12.8h.5v-1.1h-3.1l-.5-2.5v-4.3l-.1-1.9v-18.6l-.3-2.5-.1-21.6-.1-.6V.414c-.1-.1-.3-.2-.4-.2h-.1z"/><path d="M467.938 137.214c.1 0 .2.1.2.3 0 .1-.1.2-.2.2v3.1c.3.1.6.3.6.7 0 .3-.3.5-.6.6l3.7 35.3 3.6 5.9h-.8v4.9h15.5v-.9l.5-3.2.5 3.2v.9h5.7l12.7 16.8h-57.5l.2-21.7h-.9l3.6-5.9 4.3-35.3c-.4 0-.6-.3-.6-.6 0-.4.2-.7.6-.7v-1.2h-1.5s-.1 0-.1-.1c-.1 0-.1 0-.1-.1v-.4c.1-.1.1-.2.1-.3v-.4c0-.1-.1-.1-.1-.2s.1-.1.1-.1c-.1-.1 0-.1 0-.1h.4v.2c0-.1 0-.1-.1-.1v.1h-.1.1c.1 0 .1 0 .1.1h-.1c.1.1.1.1.1.2h.1c0-.1-.1-.1-.1-.1.1 0 .2 0 .3-.1 0 0 0-.1.1-.1h.1c-.1.2 0 .2-.4.4v-.1.1h-.1c.1 0 .2.1.3.1l.1-.1h.1l.1.2h.1v-.2h.1v.2h.1v-.2h.1v.3h.2v-1.1c-.2 0-.2-.1-.2-.2 0-.2.1-.3.2-.3h.1c.1 0 .2.1.2.3 0 .1-.1.2-.2.2v1.1h.3c.2.3.5.5.8.6 0 0 .1-.1.2-.1s.3.1.3.2h.8l.2.1h-1.1c0 .1-.1.2-.2.2s-.2-.1-.2-.2h-1.1v1.2c.3.1.6.3.6.7 0 .3-.3.5-.6.6l4.2 35.3 4.5-35.3c-.4-.1-.6-.3-.6-.6 0-.4.2-.6.6-.7v-3.1c-.1 0-.2-.1-.2-.2 0-.2.1-.3.2-.3h.1zm-9.7 1.5c0 .1-.1.1-.1.1-.2 0-.3-.1-.3-.1v.1h.4v-.1zm-.4.2s-.1 0-.1.1l.1-.1.2.2v.3c.1 0 .1 0 .1-.1.1.1.1.1.1.2h-.2.4l-.2-.2v-.4h-.4zm1.3 0v.6h1.1c-.3-.1-.6-.3-.8-.6h-.3zm-.1 0h-.2v.4s0 .1-.1.2h.3v-.6zm-1.3.1c0 .3-.1.3-.2.4v.1h.4c0-.1-.1-.2-.1-.2-.1 0-.1-.1-.1-.1v-.2z"/><path d="M528.538 148.914v.8h.8v.2h-.8v1.4c.4 0 .7.3.7.7 0 .3-.3.6-.6.7 0 .1.1.2.1.3.2.1.7.5.7.5h-.1v.7h-.3l.6 5.2h.4v1.2l-.2.3s.8 2.3 1.2 2.8c.4.4.7.5.7.5v.2l-.3.1.4 1.2v7l.7.1v.4h-.1v1.8h1.1v1.1h.9v.3l-.9.9v10h3v1.2l.9.1v.8c-.9 0-1 .6-1 1.2l.3.1v.5c-.1 0-.1.1-.2.2v.3c-.1.1-.1.1-.2.3v7.6l41.6-.9v-4.5h.8l.3 1.4v3.3l.6 1.4v5.8l9.5-.1 6.8 11.8-78.7-.4 3.3-7.8v-17.6c0-.2-.1-.2-.1-.3v-.3c-.1-.1-.1-.2-.2-.2v-.5l.2-.1c.1-.6 0-1.2-.9-1.2v-.8l.9-.1v-1.2h2.9v-10l-.8-.9v-.3h.8v-1.1h1.2v-1.8h-.1v-.4l.6-.1v-5.8s.1-.8.1-1.2l.4-1.2-.3-.1v-.2s.3-.1.7-.5c.4-.5 1.2-2.8 1.2-2.8l-.2-.3v-1.2h.4l.5-5.2h-.2v-.7h-.2s.6-.4.7-.5c.1-.1.1-.2.2-.3-.3-.1-.6-.4-.6-.7 0-.4.3-.7.7-.7v-1.4h-.8v-.2h.8v-.8h.1zm0 17.3c-.2.1-.4.3-.6.5.2 0 .4.1.6.2.2-.1.4-.2.6-.2-.2-.2-.4-.4-.6-.5zm-2.1.2c-.1.1-.2.2-.2.4.1.1.1.2.2.3.1 0 .1 0 .2-.1-.1-.2-.1-.4-.2-.6zm4.1 0c-.1.2-.2.4-.2.7h.2c0-.1.1-.2.2-.3 0-.1-.1-.3-.2-.4zm-1.3.4c-.2.1-.4.1-.6.2.2.1.4.2.5.3.1-.1.2-.1.4-.2l-.3-.3zm-1.5 0c-.1.1-.1.2-.2.3.1.1.3.1.4.2.1-.1.2-.2.4-.3-.2-.1-.4-.1-.6-.2zm-1.6.2c-.1.2-.1.4-.1.7 0-.1.1-.2.1-.3l.2-.2c0-.1-.1-.2-.2-.2zm4.7 0c-.1.1-.2.1-.2.2s.1.1.1.2c.1.1.2.2.2.3 0-.3-.1-.5-.1-.7zm-2.3.1c-.2.1-.4.2-.5.3.2.2.4.5.5.8.1-.3.2-.6.5-.8-.2-.1-.3-.2-.5-.3zm-1.8.1h-.2c.1.3.2.5.3.8 0-.3-.1-.6-.1-.8zm3.5 0c0 .2-.1.5-.1.8.1-.3.1-.5.3-.8h-.2zm-.6.1c-.2 0-.3.1-.4.1.3.3.5.7.7 1v-.4c-.1-.3-.2-.5-.3-.7zm-2.2 0c-.2.2-.3.4-.3.7v.4c.1-.3.3-.7.7-1-.2 0-.3-.1-.4-.1zm-1 0c-.1.1-.1.1-.1.2-.2.2-.2.4-.3.6v4.5h.8v-4c-.1-.5-.2-.9-.4-1.3zm4.1 0c-.2.4-.3.8-.4 1.3v4h.8v-4.5l-.3-.6c0-.1-.1-.1-.1-.2zm-2.6.2c-.3.3-.5.6-.7 1v4.1h1.1v-4.1h.1c-.1-.4-.3-.7-.5-1zm1.2 0c-.3.3-.4.6-.5 1v4.1h1.1v-4.1c-.1-.4-.3-.7-.6-1z"/><path d="M622.438 170.614v.6h.4v1.1c-7.3 3-12.5 10.2-12.5 18.6 0 3.2.8 6.2 2.1 8.9h-4.3v7.6h60.3v-23.8h.2v-1.4h-.8l-3.5-6h-1.6c-.3-.4-.7-.6-1.2-.6s-1 .2-1.2.6h-1.6l-3.5 6H654.338v1.4h.2v5.2h-4c-.8-7.5-5.7-13.7-12.4-16.5v-1.1h.4v-.6h-16.1z"/><path d="M554.938 167.814c.2.4.3.7.2 1l.2-.3 1.2 1.5-.2.1c-.7-.8-1.4-1.1-2.2-1 .9.3 1.6.8 1.9 1.5l.9-.2c.2.2.4.3.6.5v.5c.1-.1.1-.4.3-.2l.1 1c.6.3 1 .8 1.4 1.2h-.1c0 .3.1.4.2.4l-.2.2c.1.2.1.4.1.5-.2.2-.2.4-.1.4 0 .1.1.2.3.1.1.3.1.5 0 .8-.2.2-.2.3-.2.4-.2.2-.4.5-.5.8-.6-.2-1-.1-1.4 0-.6.4-1.2.7-1.6 1.2l-1.9 1.4c-.3.3.1.8.2 1.2.2.4.9 1.3 1.5 1.8.2.5-.1.8-.4 1.1l-.5-.1c-.3 0-.3.2-.2.2l.7.2c.2 0 0 .2-.1.2l-.8.1c-.1 0-.1.1 0 .2l.7.1c.1 0 0 .1-.1.1l-.6.2c-.1 0-.1.2.1.2h.3s-.2.1-.1.1h.3l-.5.9-.2 1.4-1.2-.1-2.6 1.8h-.4c.1-.1.2-.2.2-.4.1-.1.2-.1.3-.5-.1-.3-.2-.4-.4-.5h-.3c-.1-.3-.2-.5-.3-.7.3-.2.6-.5.7-.8.3-.3.4-.7.5-1 .2-.2.5-.4.5-.4h-1.1l.1.1c-.1.4-.3.8-.6 1.1-.2.3-.4.2-.7.2v-.4c-.1-.1-.3-.2-.5-.3-.2-.1-.5-.1-.8 0-.3 0-.4.2-.5.4-.1.2-.1.4-.1.7.1.3.4.5.6.6-.1.3-.2.6-.2.9-.1.4-.1.8-.1 1.2-.4-.2-.8-.4-1.2-.3-.5.1-.4.5-.5.8-.6.1-1.3 0-2-.2 0 .3-.1.7.1.9-.1.3-.1.6.2.9.4.3 1 .3 1.5.3 0 .4.5.3 1 .3.1.4.5.3.8.4.5.2.7.4.6.7 0 .9.3 1.5.6 2.2l1.2-.2c.1.4.2.7.1 1.2s-.5.9-.8 1.3c-.2-.4-.6-.6-1.2-.5-.1.2-.3.2-.4.2-.6-.2-1.1-.5-1.4.3-.1.2-.3.2-.5.3v.3c-.2.3-.5.4-.8.5l-.8.1c.4.2.9.3.9.6-.3.2-.5.3-.9.8.2.7-.1 1.2-.2 1.8l.5-.7.5.4c-.1-.5-.2-.9.2-1.4l.3.1.1-.8c.4-.2.7-.4.8-.6l.4.2.4-.7h.2c.7.9 1.5 1.8 1.9 2.7-.3.7-.2 1.3.1 1.8-2.6.2-3.4.8-4.1 1.4l25.8.1h12.1l-.1-1.6h-1.5c.1-.2.3-.3.1-1.4-.1-.5-.1-1.1-.1-1.6.3-1.1.1-2.1-1.1-2.6.1-.3 0-.5-.3-.6-.1-.2-.2-.4-.5-.6.3-.1.6-.2.4-.9.1-.4.6-.8 0-1.3l.1-.3c0-.8-.3-1.1-1.2-1l-.1.1c-.5-.1-.9 0-1.4.1l-.2.3c-.2 0-.3.2-.4.2-.1.2-.1.3-.1.4-.2.2-.2.5-.2.7l-.4.6c.1.1.3.1.3.1s-.1.2 0 .2v.1s-.1 0 0 0c.1.3-.1.5 0 .6.2.1.5.1.6.4.1.2 0 .4-.1.6l-2 .1c-.6-.8-1.1-.4-1.5.1-.3-.9-.9-1.7-1.4-2.5l.9-.5c.2-.7.4-1.5.6-2.4l1.9-.7c.9-.3 1.7-.5 2.6-.7.3-.5.4-.9.5-1.3 0-.7 0-1.3-.4-.8-.4.2-.6.1-.9.1-.1-.5 0-1.3-.9-.5-.5.4-1 .3-1.4.3-.2-.7-.5-1.2-1.4-.6-.5.5-1 .5-1.5.5l-1.7-2.1-.2-.3-.1-.2c-.1-.9-.1-1.6-1.1-2.8-.7-.6-1.3-1.5-2.3-1.8-.4-.4-.8-.8-1.2-1.5-.2-1-.7-1.7-1.8-1.9-.4-.3-.7-.6-.9-1.1.2-.4.4-.8.3-1.3-.1-.2-.1-.3 0-.5.1-.5-.3-1-.8-1.5-.2-.3-.5-.5-.9-.6-.1.1-.3.2-.7.2-.3 0-.4.1-.6.1h-.1l-.2-.3.4-.1c-.5-.2-.9-.4-1.2-.6v-.7l-1.3-.9.3-.1s.7.3 1.4.2c-.3-.1-.3-.2-.3-.2-.6-.1-.5 0-1.1-.4l-.3-.3c-.3-.3-.6-.8-.5-1.2-.2.3-.3.7.3 1.4l-.3.2-1.3-1.5.3-.1c-.4 0-.6-.3-.9-.5zm2.5 11.7c.2.7.5 1.4.9 2-.1.6-.2 1.1-.5 1.6l-.5-.2-.1-.8h-.2l-.3.4c-.5-.3-.7-1-.8-1.4-.1-.4.1-.7 0-1 .7-.1 1.1-.3 1.5-.6zm6.2.9s.4.3.3.4c.1.3-.1.6.3.7l-.1.2c-.2.1-.3.4-.4.7-.2-.1-.4-.2-.5-.5.1-.1.3-.3.4-.5v-1zm1.6 1.6c.1 0 .2.1.2.2.1.1.1.2.1.3-.1 0-.3-.1-.3-.2-.1-.1-.1-.2-.1-.2l.1-.1zm.3 1.4c.7.1 1.3.2 2 .1.3.5.5.7.7.8v.6c.4.2.8.4 1.1.8l-.5.2v.3c0 .4-.2.8-.4 1.2l-1.1-.7c-.3-.2-.7-.1-1.1 0v-.3c.5-.1.8-.3.9-.8 0-.5-.1-.7-.6-1-.4-.1-.5 0-.7.1l-.3.3s.2-.6.2-.8c0-.3-.2-.8-.2-.8zm4.2 2.9l.9 1.1c-.1-.1-.1-.1-.2-.1h-.1c0-.1 0-.1-.1-.1-.2 0-.5 0-.7.2-.1 0-.1.1-.2.1v-.9c.1-.3.3-.3.4-.3zm2.9 5.4l-.8 2-1.2.1-.5-.2c-.1-.4-.5-.5-.8-.6l-.1-.4c-.2 0-.1-.1-.1-.3-.2 0-.4-.1-.4-.3 1.6-.1 2.8-.2 3.9-.3zm-6.5.2s.8.1.9.1c-.2.1-.2 1.4.1 1.4-.4-.1-.7-.1-1-.5v-1zm-17.8.8c.9.2 1.7.3 2.6.2-.6.2-1.2.7-1.8 1.2-.4-.2-.6-.9-.8-1.4zm18.5 2.1c.2.2 1.2.2 1.2.1 0 0-.1 1.2 0 1.1 0-.1-.2.5-.3.7l-.5.2c-.4-.5-.4-1.2-.4-2.1zm-12.3.8c0 .3-.2.6-.5 1s-.4.8-.2 1.1c0 .4-.2.8-.6 1.1l-.4-.1c-.6-.1-.4-.5-.5-.7 0-.3.1-.6.2-1 .5-.3 1-.8 1.5-1.4h.5zm15.1 1.8l.3.2.3.3c.1.2 0 .5-.3.8-.9-.2-1 .7-1 1.6l-.4.3c0-.9 0-1.9.1-2.9.4.2.7.3 1-.3z"/><path d="M1.038 202.014h667.7v50.9H1.038z"/><path d="M9.238 107.514v9.4l-.2.1s-.2 1.5-.4 1.8c-.1.4-.4.5-.4.5v1.4h-1.8v2.5l.3 1 .4.3.2.4v.3l-1.6 53.3-4.7.7v.2l.8.3.2.8.5.2.5.8 1.3.5.2.7.6.3.5.7v.8h-.1v.2l-2.8 23.3-.1.1c-.1.2-.1.3 0 .5l-1.6 13.4v.1c0 .1 0 .3.1.4.2.1.4.1.5 0 .2 0 .3-.1.3-.3l7.5-12.9 7.4 12.9c0 .1.1.3.3.3.2.1.3.1.5 0 .1-.1.2-.3.2-.5l-.1-.1-3.8-31.4v-.1l-.7-5.6v-.3h-.1.1v-.8l.5-.7.5-.3.2-.7 1.3-.5.5-.8.5-.2.3-.8.7-.3v-.2l-4.6-.7-.3-9.6v-.1l-1.3-43.6v-.3h-.1l.2-.4.5-.3.2-1v-2.5h-1.8v-1.4s-.2-.1-.4-.5c-.2-.3-.4-1.8-.4-1.8l-.2-.1v-9.4h-.3zm-1 18h2.3l-1.1 1.1-1.2-1.1zm-.3.5l1 1-1.1 1.1.1-2.1zm3 .1l.1 2-1.1-1.1 1-.9zm-1.5 1.4l1.5 1.4-1.5 2.2-1.5-2.2 1.5-1.4zm-1.6 2.2l1 1.6h-1.1l.1-1.6zm3.2.1l.1 1.5h-1.1l1-1.5zm-3.3 2.2h1.1l-1.2 1.7.1-1.7zm2.3 0h1.1v1.7l-1.1-1.7zm-.6.2l1.7 2.5-1.7 2.2-1.7-2.2 1.7-2.5zm-1.8 3.4l1.1 1.5h-1.2l.1-1.5zm3.6 0v1.5h-1.1l1.1-1.5zm-3.7 2.2h1.3l-1.3 1.7v-1.7zm2.5 0h1.3v1.6l-1.3-1.6zm-.6.2l1.8 2.4-1.8 2.2-1.8-2.2 1.8-2.4zm2 3.2v1.6h-1.4l1.4-1.6zm-4 0l1.3 1.6h-1.3v-1.6zm0 2.3h1.3l-1.4 1.7.1-1.7zm2.7 0h1.3l.1 1.7-1.4-1.7zm-.7.1l2 2.5-2 2.6-2-2.6 2-2.5zm-2.1 3.4l1.4 1.9h-1.5l.1-1.9zm4.2 0l.1 1.9h-1.5l1.4-1.9zm.1 2.6l.1 2.2-1.7-2.2h1.6zm-2.8 0l-1.7 2.2.1-2.2h1.6zm.6.2l2.2 3-2.2 3.1-2.2-3.1 2.2-3zm-2.3 3.9l1.7 2.5h-1.8l.1-2.5zm4.6 0l.1 2.5h-1.8l1.7-2.5zm-4.7 3.1h1.8l-1.9 2.7.1-2.7zm3 0h1.8l.1 2.7-1.9-2.7zm-.6.2l2.5 3.5-2.5 3.5-2.5-3.5 2.5-3.5zm-2.6 4.5l2 2.7h-2v-2.7zm5.2 0v2.7h-2l2-2.7zm0 3.3l.1 3-2.1-3h2zm-3.2 0l-2.2 3 .1-3h2.1zm.6.3l2.7 3.8-2.7 4.2-2.7-4.2 2.7-3.8zm2.8 4.8l.1 3.4h-2.3l2.2-3.4zm-5.6 0l2.2 3.4h-2.3l.1-3.4zm-.1 4l2.3.1-2.4 3.8.1-3.9zm3.5.1h2.3l.1 3.8-2.4-3.8zm-.6.3l2.7 4.1h-.5v-.4l-2.2-.2-2.2.2v.4h-.5l2.7-4.1zm-2.6 10.9h5.1l-2.6 4.4-2.5-4.4zm5.6 1l.5 3.9h-2.7l2.2-3.9zm-6.2 0l2.3 3.9h-2.7l.4-3.9zm-.5 4.8h2.8l-3.6 6.2.8-6.2zm4.5 0h2.8l.8 6.2-3.6-6.2zm-.9.5l4.4 7.5h-8.7l4.3-7.5zm-4.3 8.4h8.7l-4.3 7.5-4.4-7.5zm9.2 1l.9 7h-4.9l4-7zm-9.7 0l4 7h-4.9l.9-7zm-1 7.9h5l-6.3 11 1.3-11zm6.7.1h5l1.3 10.9-6.3-10.9z"/><path d="M64.238 144.714c0 .2-.3.4-.1.6v.2c-.2 0-.3.2-.2.4 0 .1 0 .2.1.3v.1l-.1 1.8h-.3l-.2-.2c0-.2.2-.2.2-.4h.1c.1 0 .1 0 .1-.1 0 0 .1.1.1 0 0 0 .1 0 0 0 .1 0 .1 0 0-.1-.1 0-.3-.1-.6.2 0 0 .1-.1 0-.1h-.1c.1 0 0 .1 0 .1-.1-.1-.2-.3-.3-.3-.1 0-.1 0-.1.1-.1 0-.1 0 0 0-.1 0-.1.1 0 .1h.1c0 .1 0 .1.1.1-.1 0 0 0 0 0v.1l.1.2v.1c-.2 0-.2.1-.2.2 0 0-.1 0-.1.1v.2c-.1 0-.1 0-.1.1v.1s0 .1.1.1c0 .1 0 .2.1.2-.1.1-.1.1-.2 0-.1 0-.2-.1-.3-.1-.1-.2-.2-.4-.2-.6-.1-.1-.4-.3-.7-.3-.1-.1-.1-.3-.1-.5 0-.1 0-.2-.1-.2v-.1c.1 0 .1.1.2.1 0-.1-.1-.1-.2-.2.1 0 .1.1.2.1l-.1-.1h.1-.1c.1-.1.2-.1.2-.2s.1-.1.1-.2h-.1v-.2c0 .1 0 .1-.1.1 0-.1.1-.2 0-.2v.1-.1s-.1.1 0 .1c-.1-.1-.1-.2-.2-.2v.1c0-.2-.1-.2-.3 0v-.2V146.414v-.2l-.1.2v-.2.3c0-.1 0-.1-.1-.1v.2l-.1-.1c.1 0 .1.1.1.2l-.1-.1c.1.1.1.2.2.2-.1 0-.1 0-.2.1h.2-.1l.1.1-.1.1h.1c.1.1.1.2.2.4v.5c-.3 0-.8-.1-1-.1-.1-.1-.2-.1-.2-.1s-.1 0-.1.1.2.2.2.2-.5-.3-.5-.1c-.1.1.5.3.5.3s-.3-.1-.4 0c0 .1.5.3.5.3s-.2 0-.2.1.7.2.7.2-.3 0-.2.1c0 .1.5.1.5.1s-.2 0-.1.1c0 .1.4 0 .4 0s-.1.1-.1.2c.1.1.4-.1.4-.1s-.2.2-.1.2c0 .1.2 0 .2 0s-.2.1-.1.2c0 .1.1 0 .1 0s-.1.1 0 .2l.1-.1v.2l.1-.1v.1c.1.1.2-.1.2-.1s-.1.3 0 .3h.1s-.1.1 0 .2v-.1s0 .2.1.2c0 .1 0 0 0 0v.2c.1 0 .1-.1.1-.1-.2.3-.3.7-.3.8-.1.1-.2.4-.3.6.1.1.2.1.3.1 0 .1 0 .1.1.1-.1.5-.4.9-.7 1.3-.1.3-.3.5-.4.8v.1c0 .2.1.2.2.2s.1.1.1.1c.1 0 .1-.1.2 0 .1.2.4.1.7.1.1.1.1.2.3.2h.1s0 .1-.1.1c-.2.1-.7.3-.7.5-.1.1-.2.1-.2.3v1.6h-.9v1.1c.1.3 0 .6.1.8.2.1 0 .7.2.8.1.1.2.3 0 .7l-.2 11.8-.1 11.7s-.9.7-.4.8c.5 0-.3.8-.4.7v2.5h-4.3v.8h.3l.1.1v1l.2.1v5h-.4v.3h-.3v.3h-.4v.3h-.4v4.3h16.4v-4.3h-.4v-.3h-.3v-.3h-.4v-.3h-.2v-5l.1-.1v-1l.2-.1h.3v-.8h-4.5v-2.5c-.1.1-.9-.7-.4-.7.5-.1-.4-.8-.4-.8l-.1-11.7-.2-11.8c-.2-.4-.1-.6.1-.7.1-.1 0-.7.1-.8.1-.2 0-.5.1-.8v-1.1h-.7v-1.5c0-.2-.2-.3-.3-.4-.1-.3-.3-.3-.5-.4v-.4c.2 0 .4.1.6 0 .1 0 .1 0 .3-.1h-.1c.3 0 .6-.2.9-.3-.1-.4-.3-.7-.6-1-.1-.3-.2-.5-.4-.8 0-.2-.1-.3-.1-.5.1-.1.3-.2.2-.4-.1 0-.1 0-.2-.1s-.1-.2-.2-.4c0-.2 0-.3-.1-.4l.1-.1c.1 0 .3.1.4 0 0-.1.1-.2-.1-.5v-.1c0-.1-.1-.2-.1-.3.2.1.2.1.1-.1.1 0 .2.1.2 0 .1-.1-.1-.2-.1-.2s.4.1.4 0c.1 0 0-.1 0-.1s.4 0 .4-.1-.2-.1-.2-.1.5-.1.5-.2c.1-.1-.1-.1-.1-.1s.4-.1.4-.2-.2 0-.2 0 .3-.2.3-.3c0-.1-.3 0-.3 0s.1-.1.1-.2h-.2c-.4.1-.7.1-1 .1.1-.1.2-.1.2-.4 0-.1 0-.3-.1-.5v-.2c0-.2-.3-.5-.4-.6v-.3c.2-.1.3-.3.2-.5 0-.1-.1-.3-.2-.3v-.1c.2-.1 0-.4 0-.7zm-.1.9v.2l-.1-.1c0-.1 0-.1.1-.1zm.1.1c.1 0 .1.1.1.1 0 .1-.1.1-.1 0v-.1zm-.2.2h.1c0 .1 0 .1-.1.1v-.1zm.2.1s.1 0 .1.1h-.1v-.1zm-3 .4h.1s.1 0 .1.1c0 0 0 .1.1.1v.1c-.1.1-.1.2-.2.2 0 0-.1-.1-.1 0 0 0 0-.1-.1 0h-.1l-.1-.1.1-.2h-.1l.1-.1v-.1h.2zm3 .3l.3.4c0 .1.1.2.1.2-.1-.1-.3-.3-.4-.5v-.1zm0 .3c.1.1.3.2.4.4-.1.3-.2.6-.3.8h-.1l-.1.1v-.1c.2-.4.2-.8.1-1.2zm-3.2 0v.1-.1zm.2 0v.1-.1zm2.9.1c.1.1.1.3.1.5s0 .4-.1.5v-1zm.5.5v.5c0 .1-.2.1-.3.1.2-.1.2-.4.3-.6zm-1 .5h.3v.1h-.3v-.1zm.3.1c-.1.1-.2.1-.3.1l.3-.1zm0 0v.2c-.2.3-.3.5-.4.8-.1-.1-.1-.1-.1-.2.1 0 .2 0 .2-.2 0-.1.1-.1 0-.1.1 0 .1-.1.1-.1v-.1c0-.1-.1-.1-.1-.1v-.1l.3-.1zm-1 6.5l.1.1v.1c-.1 0-.1-.1-.1-.1v-.1zm.4.1h.1l.1.2h-.1l-.1-.1v-.1zm-6.3 35.6h.4v4.7h-.4v-4.7zm11.6 0h.4v4.7h-.4v-4.7zm-10.5 0h.9v4.7h-.9v-4.7zm8.9 0h.9v4.7h-.9v-4.7z"/><path d="M285.638 160.914c-.1.1-.1.2-.2.3v-.1c-.2.2-.3.3-.5.3 0 .1-.2.1-.1.3 0 0 .1 0 0 .1-.1 0-.1.1-.2.1 0-.1-.1-.2-.1-.3v-.1s.1 0 .1-.1h-.1v-.2h-.1v.2h-.1s0 .1.1.1c-.1 0-.1.1-.1.1v.1c0-.1.1-.1.1 0s0 .2-.1.2c0 0-.1 0-.2-.1.1-.1 0-.2 0-.2-.3-.2-.5-.3-.7-.5h-.1s-.1-.1-.2-.1c0 0 .1.1.1.2-.1.1 0 .1.1.1-.1.1 0 .2 0 .2 0 .1 0 .1.1.2l.1.1c0 .1 0 .1.1.1v.1h.1c0 .1.1.1.2.1 0 .1-.1.2 0 .2 0 0 0 .1.1 0 0 .1 0 .1.1.1 0 0 0 .1.1 0 0 0 0 .1.1 0v.2c-.1 0-.1.1-.1.1-.2.2-.4.4-.4.7 0 .3.3.7.7.7l-.1.1s0 .1.1.1v1l-.1.1-.2.2c-.2-.2-.4-.1-.5.1 0 .1-.1.6 0 1 0 .5.1 1.1.1 1.6-.1.1-.6.4-.7.4v-.1l.1-.2v-.2c-.1-.1-.1-.1 0-.1 0-.1-.1-.2-.1-.3l-.1-.1c-.1 0-.3-.1-.4.1 0 0 0-.1-.1-.1 0 .1 0 .1.1.2l-.1.1c-.1.1 0 .2 0 .2v.3c-.1.2-.1.3-.1.5-.7.2-1.8.4-2 .3v-.1c-.2-.3-.2-.7-.4-1 0-.1-.1-.2-.2-.3-.1-.1-.3-.3-.4-.3-.1 0-.2.1-.3.2h-.1c-.1 0-.1 0-.1.1l-.1-.1v.1c.1 0 .1 0 .1.1.1 0 0 .1 0 .2 0 0-.1.1 0 .1v.4c.1.1.1.2 0 .3 0 .1 0 .1.1.2v.1c.1.1.1.1.2 0l.2.1v.2c-.1.1-.1.2-.2.3v.5c.1.1.1.3.1.3.1.3-.1.3-.2.4l-.1.2c.1.2.1.5.1.7v.3c.1.3.3.4.4.2 0-.2-.1-.3-.1-.4-.1 0-.1-.1-.1-.1v-.6l.1-.1c.1 0 .1-.2.2-.2l.1.1c.1-.1.2 0 .3-.1 0 0-.1-.1 0-.1h.2c0 .2.1.3.1.4l.1.3c-.1.1 0 .4 0 .5 0 .2 0 .3-.1.5v.2s0 .1-.1.1v.2h-2.1v.1h-.7v.5h-.4v.4h-17.8l1.1 1.4v2.2h-.5v.5h-1.8l-.9.4.9.5v.5l1.8 1.3v2.7h-.9l.9 1.4v20.3h3.7v-1.4l-.5-.4v-19.4l.5-.5h4l.5.5v19.4l-.5.4v1.4h4.1v-1.4l-.5-.4v-19.4l.5-.5h4.9l.5.5v19.4l-.5.4v1.4h4.1v-1.4l-.4-.4v-19.4l.4-.5h8.1l.5.5v19.4l-.5.4v1.4h4.1v-1.4l-.5-.4v-19.4l.5-.5h5l.4.5v19.4l-.4.4v1.4h4v-1.4l-.4-.4v-19.4l.4-.5h4.1l.4.5v19.4l-.4.4v1.4h3.6v-20.3l.9-1.4h-.9v-2.7l1.8-1.3v-.5l.9-.5-.9-.4h-1.8v-.5h-.5v-2.2l1.1-1.4h-17.8v-.4h-.4v-.5h-.9v-.1h-2.9v-2.2h.1c0 .1 0 .2.1.3v1.4c.1 0 .1 0 .2.1l-.1.2c.1.1.2.1.4.1v-.5s.1-.1.1-.2-.1-.2-.1-.3v-.2c0-.2.1-.4.1-.7.1 0 .1 0 .2.1 0 .1.1.4-.1.5v.2c0 .3 0 .6-.1.9v.2h.5v-.1l-.1-.1v-.4c0-.3 0-.5.1-.6.2-.2.2-.3.2-.4.1 0 .1-.2.1-.3l.2-.1c.1 0-.1.2 0 .2 0 .1.1-.1.1-.1.1 0 .2.1.3.1v.5l-.1.2v.1c-.2.2-.2.5 0 .5.1 0 .2 0 .2-.3v-.1l.1-.1c0-.3 0-.5.1-.7v-.2c-.1-.1-.1-.2-.2-.4.1 0 .1-.2.1-.2v-.3s.1-.1 0-.2c0-.1 0-.2-.1-.2 0-.1-.1-.2-.1-.3v-.2c.1 0 .1-.1.1-.2.1 0 .1 0 .2-.1 0-.1 0-.1.1-.2-.1 0-.1 0-.1-.1s0-.3.1-.4v-.1c.1-.1.1-.1 0-.2v-.1l.1-.1c0-.1.1-.2.1-.3-.1.1-.2.1-.2.1-.1 0-.1-.1-.2-.1v-.1l-.1.1c-.1 0-.2 0-.3.1-.1 0-.2 0-.2.2-.2.1-.3.2-.3.4-.2.2-.2.5-.2.8v.2l-.1.1c-.4.1-.9.1-1.4 0-.3-.1-.6-.3-.9-.4V168.714c0-.1.1-.1.1-.2-.1 0-.1 0-.1-.1v-.3c0-.1.1-.2 0-.3 0-.1 0-.1-.1-.2.1-.1.1-.2-.1-.1-.1-.1-.2-.1-.3 0l-.1-.1c0-.3 0-1.1-.1-1.4-.1-.4-.3-.7-.6-.3.1.1.1.3-.2.5v-.1h-.1s0-.1-.1-.1c0 0-.1-.1-.1-.2 0 0 .1-.1.1-.2 0 0 0-.1.1-.1v-.2h.1-.1v-.2.1l-.1-.1-.1-.1v.1H284.938l-.1.1v-.1l-.1.1-.1-.5c.1-.1.1-.1 0-.1v-.3h.1v-.1l-.1-.1c.4-.1.7-.4.7-.7 0-.4-.3-.7-.5-.7v-.1s.1 0 .1.1c0 0 .1 0 0 0v-.1h-.1c0-.1-.1-.1 0-.1v-.2h.2l.1-.1c0 .1 0 .1 0 0 .1 0 .1 0 .1-.1v-.1c.1 0 0 0 0-.1.1.1.1 0 .1 0 .1 0 0 0 0-.1.1.1.1 0 .1 0v-.1c.1 0 .1 0 .1-.1v-.1s.1 0 0-.1c.1-.1.1-.1 0-.1.1-.1.2-.2.1-.2v-.2zm-1.2.5v.1-.1zm.1 0v.1-.1zm-.1 1.1v.1-.1zm-.1.1c.1.1.1.1 0 .1h-.1c0-.1.1-.1.1-.1zm.3.3h.1c.2.1.4.2.4.5 0 .2-.2.4-.5.5v-.1h.2c-.1-.1-.2-.2-.2-.4.2.1.3.1.4.2v-.4c-.1 0-.2.1-.4.1 0-.2.1-.3.1-.4h-.1zm-.1 0h-.2c.1.2.1.3.1.4-.1 0-.2-.1-.3-.1v.4c.1-.1.2-.1.4-.1 0 .1-.1.2-.1.3h.1v.1c-.3-.1-.5-.3-.5-.5 0-.3.2-.5.5-.5zm.1 2.7v.4h-.3v-.1s.1-.3.1-.2c.1 0 .1 0 .2-.1zm.1.1v.2-.2zm1.1 2.1v.2h.1l.1.4c-.1-.1-.2-.1-.2-.1l-.1-.3c.1-.1.1-.1.1-.2zm-1.4.3l-.1.1v-.1h.1zm-.6.3c-.3.2-.5.5-.7.8v-.4c.2-.1.5-.2.7-.4zm-4.4.5v.2c0-.1 0-.1 0 0-.1 0-.1-.1-.1-.1l.1-.1zm3 .2s0 .1-.1.2c-.5.1-1.1.1-1.6 0 .6 0 1.1-.1 1.7-.2zm-3 0zm7.6 0c.3.1.5.2.8.3-.3 0-.5-.1-.8-.1v-.2zm-7.6 0s0 .1 0 0v.2h-.1c.1-.1.1-.1.1-.2zm11 .1l-.1.1v-.1h.1zm-10 .1c.6.1 1.2.1 1.9.1v.1c-.1.1-.2.2-.3.4-.1.1 0 .2 0 .2v.7c-.1 0-.3-.1-.4-.2 0-.5.1-1.1-.8-1.1-.1 0-.2 0-.3-.1l-.1-.1zm6.6 0c.3.1.6.1.8.2.2.1.5.2.6.2h.2c-.1 0-.2.1-.2.2v.1c-.1.1-.1.3-.2.4l-.6.5h-.1c0-.2.1-.3 0-.5v-.9h-.3v.1c-.1-.1-.1-.2-.2-.3zm2.3.2h-.2s-.1 0-.2.1h-.2c-.1 0-.2.1-.2 0l-.5-.1h1.3zm0 0h-.1.1zm-1.1 1.1v.3h-.6l.6-.3zm-6.6.1c.2.1.3.2.5.2h-.6c0-.1.1-.1.1-.2zm6.5.3v2.2h-.5l-.1-.7v-.9h.1v-.1h.1c.1-.1.1-.1 0-.2h-.1v-.1h-.1v-.2h.6zm-6.6 0h.2l-.1 2.2h-.4v-.5c.1 0 .2-.1.1-.2.1-.1.2-.3.1-.4v-.8c0-.1 0-.2.1-.3zm.2 0h.4c0 .3.2.5.1.9.1.2.2.5.2.7 0 .2 0 .3-.1.4 0 0 .1.1 0 .2h-.6v-2.2zm-.8.1v.1c0 .1-.1.1-.1.2v-.1l.1-.2zm1.9.5h.1c.1.2 0 .4.1.6v.3c.1.1.1.2.2.3v.4h-.4l-.1-.3.1-.4v-.3c.1-.1.1-.3 0-.4v-.2zm.5.1c.1 0 .2-.1.2 0l.1.1c-.1.1-.1.3 0 .5v.4c0 .1-.1.2 0 .4h-.1v.1h-.2v-.4c.1-.1.1-.1.1-.2v-.3c0-.2-.1-.4-.1-.6zm3.8 0h.1v.1l.1 1.4h-.2v-.2c-.1 0-.1 0-.1-.1v-.4c.1-.1 0-.2 0-.3v-.2c.1-.1.1-.2.1-.3zm-.7 0c0 .1 0 .3.1.4v.2c0 .2 0 .2.1.3l-.1.2c.1.1.1.2.3 0v.4h-.7v-.1c0-.1.1-.2 0-.3 0-.3 0-.5.1-.7.1-.1 0-.2 0-.4h.2zm-2.6 0l1.1.1v1.2l-.1.2h-1v-.1s-.1 0 0-.1v-.8c.1-.1.1-.3 0-.5zm2 .1h-.1c-.1.2 0 .4.2.4V173.214h-.6l-.1-.2V171.814h.6zm-4.9.2c.1 0 .1 0 .1.1-.1 0-.1-.1-.1-.1zm-.3 0v.2c.1.2.2.4 0 .7v.2h-.1v-.1l.1-.5v-.5zm.5.8l.1.4h-.2v-.3s.1 0 .1-.1zm-.2.2v.2h-.1c0-.1 0-.1.1-.2z"/><path d="M145.338 153.714v11.7h-1.4c0-.3-.1-.5-.3-.5-.2 0-.3.2-.4.5h-2.2c0-.3-.2-.5-.3-.5-.2 0-.4.2-.4.5h-1.3v.7l-.3.2v.8h-1.4l1.1 1.5v4.6h-.5v.8h-.4v.5h-.3l.5.7v2h-.9v-.2l-.1-.3c0-.4-.1-.7.2-.9l-.1-.8-.1-.6c-.1-.1-.3-.2-.1-.3.1-.9-.5-.6-.6-.4v.1c-.2.1-.4.2-.5.3.1.2.3.3.4.3-.1.2-.1.4-.1.6 0 0-.2.2-.2.3v.3c-.1.3-.1.7-.2 1 .1.2 0 .4.1.4v.2h-.1v.5h-.5l.5.6v.7h-1.6l.6 1h1v1.5h-.4l.4.8h-.6l.6 1.9v11.4l-.5.9v.8l-.3.1v.5l.3.2v3.7l-.3.3v1h120.4v-1l-.3-.3v-3.7l.3-.2v-.5l-.3-.1v-.8l-.6-.9v-11.4l.6-1.9h-.6l.4-.8h-.4v-1.5h1l.6-1h-1.6v-.7l.5-.6h-.5v-.5h-.1v-.2c.2 0 .1-.2.1-.4 0-.3 0-.7-.2-1v-.3c0-.1-.2-.3-.2-.3 0-.2 0-.4-.1-.6.2 0 .3-.1.4-.3 0-.1-.3-.2-.4-.3v-.1c-.1-.2-.8-.5-.7.4.3.1 0 .2-.1.3l-.1.6v.8c.2.2.1.5.1.9l-.1.3h.1l-.1.2h-.9v-2l.5-.7h-.2v-.5h-.5v-.8h-.4v-4.6l1-1.5h-1.4v-.8l-.3-.2v-.7h-1.3c0-.3-.2-.5-.3-.5-.2 0-.3.2-.4.5h-2.2c-.1-.3-.2-.5-.4-.5-.1 0-.3.2-.3.5h-1.4v-7.1h.1v.7c2.6 1 4.3.3 5.9 1.3l.1-.7s-.2-.2.2-.4c-.1-.1-.3-.2-.3-.5 0-.7.3-.1.6-.5.1-.3-.4-.6-.1-.8-1-.8-2.3-.8-3.1-1.6-1.1-1.2-1.8-1.3-3.3-1.6v1h-.1v-1.5h-.3v11.7h-.5c0-.3-.2-.5-.3-.5-.2 0-.4.2-.4.5h-2.2c0-.3-.2-.5-.3-.5-.2 0-.4.2-.4.5h-1.3v.6l-.3.3v.8h-1.1l1 1.4v4.7h-.4v.8h-.4v.5l-.2.8-.3 1.1h-4.1v-.3l-.2-.2v-.4c.3-.2.1-.3 0-.4.2-.2.3-.4-.1-.4.1-.1.1-.3-.1-.4v-.1l-.1.1c-.2.2-.2.3-.1.4-.5.1-.1.3 0 .4-.2.1-.4.2-.1.4v.4l-.2.2v.3h-4.3v-.3l-.2-.2v-.4c.3-.2.1-.3-.1-.4.2-.2.4-.4 0-.4.1-.1.1-.3-.1-.4v-.1l-.1.1c-.2.2-.2.3-.1.4-.5.1-.1.3-.1.4-.1.1-.3.2 0 .4v.4l-.2.2v.3H222.338v-.3l-.2-.2v-.4c.2-.2.1-.3-.1-.4.2-.2.4-.4 0-.4 0-.1.1-.3-.1-.4l-.1-.1v.1c-.3.2-.2.3-.1.4-.5.1-.1.3-.1.4-.1.1-.3.2 0 .4v.4l-.2.2v.3h-4.3v-.3l-.2-.2v-.4c.2-.2.1-.3-.1-.4.2-.2.4-.4 0-.4 0-.1.1-.3-.1-.4l-.1-.1v.1c-.3.2-.2.3-.1.4-.5.1-.1.3-.1.4-.1.1-.3.2 0 .4v.4l-.3.2v.3h-4.1c-.1-.4-.4-.7-.1-1.1-.1-.3.2-.7-.3-.8-.2-.1-.3-.2-.3-.4l.9-1.5h-1v-1l-.5-.4.5-1h-.5v-.7l-.5-1v-1.8l.4-.4-.8-.5v-.7h-.2l.1-.7c-.1-.2-.3-.3-.4-.4v-.1c0-.1 0-.1-.1-.2v-.3h.2v-.1h-.2v-.1h-.1v.1h-.2v.1h.2v.4c-.1 0-.1 0-.1.1 0 0 0 .1.1.1-.2.1-.3.2-.5.4l.1.7h-.3v.7l-.8.5.5.4v1.8l-.5 1v.4h-.9s-.7-2.3-1.2-3.3c-.5-.9-1.4-2.2-2-2.8-.5-.7-1-1.1-1.6-1.5-.6-.5-1.5-1-2.2-1.3-.7-.3-2.2-.8-2.2-.8v-.3l-.6-.5s-.1-.2-2.1-.2h-.1c-2 0-2.1.2-2.1.2l-.6.5v.3s-1.5.5-2.2.8c-.6.3-1.6.8-2.2 1.3-.6.4-1.1.8-1.6 1.5-.6.6-1.5 1.9-2 2.8-.5 1-1.2 3.3-1.2 3.3h-.9v-.4l-.5-1v-1.8l.6-.4-.9-.5v-.7h-.3l.2-.7c-.2-.2-.4-.3-.5-.4v-.1c0-.1 0-.1-.1-.1v-.4h.2v-.1h-.2v-.1h-.1v.1h-.2v.1h.2v.3c0 .1-.1.1-.1.2 0 0 0 .1.1.1-.2.1-.4.2-.5.4l.2.7h-.3v.7l-.8.5.4.4v1.8l-.4 1v.7h-.6l.5 1-.5.4v1h-1l.9 1.5c0 .2-.1.3-.2.4-.6.1-.3.5-.3.8.2.4-.1.7-.2 1.1h-4.1v-.3l-.2-.2v-.4c.3-.2 0-.3-.1-.4 0-.1.5-.3-.1-.4.1-.1.2-.2 0-.4l-.1-.1-.1.1c-.1.1-.1.3 0 .4-.4 0-.3.2-.1.4-.1.1-.3.2 0 .4v.4l-.3.2v.3h-4.2v-.3l-.3-.2v-.4c.4-.2.1-.3 0-.4 0-.1.4-.3-.1-.4.1-.1.2-.2 0-.4l-.1-.1-.1.1c-.2.1-.1.3 0 .4-.5 0-.3.2-.1.4-.1.1-.3.2-.1.4v.4l-.2.2v.3h-4.2v-.3l-.3-.2v-.4c.4-.2.1-.3 0-.4 0-.1.4-.3-.1-.4.1-.1.2-.2-.1-.4v-.1l-.1.1c-.2.1-.1.3 0 .4-.5 0-.3.2-.1.4-.1.1-.3.2-.1.4v.4l-.2.2v.3h-4.3v-.3l-.2-.2v-.4c.3-.2.1-.3 0-.4 0-.1.4-.3-.1-.4.1-.1.2-.2-.1-.4v-.1l-.1.1c-.2.1-.1.3-.1.4-.4 0-.2.2 0 .4-.2.1-.3.2-.1.4v.4l-.2.2v.3h-4.1l-.2-1.1-.3-.8v-.5h-.4v-.8h-.4v-4.7l1-1.4h-1.1v-.8l-.2-.3v-.6h-1.4c0-.3-.2-.5-.3-.5-.2 0-.3.2-.4.5h-2.2c0-.3-.2-.5-.3-.5-.2 0-.3.2-.4.5h-.5v-7.1h.1v.8c3-.2 4 .9 6 1.2v-.7c-.1-.1-.3-.1-.3-.4-.1-.2-.1-.3.2-.3 0-.3-.1-.5-.1-.8.1-.3.3-.5.7-.7-1.1-.8-1.9-1.1-3.2-1.6-1.1-.4-1.8-1.2-3.3-1.6v1h-.1v-1.5h-.3zm98.9 1.6h.1v2.8h-.1v-2.8zm-98.6.1h.1v2.7h-.1v-2.7z"/><path d="M493.938 142.114v5.7h-.5v1l.2.4-.8 4.2h-.8v1h-1.5l-.9-.8-2.2.4-.4 1.1.2.2-.2 1.1.2.2v.9l.4 1.3-.2 1.1.2.2v5.1l-.2.2.2.4-.2.9.2.4v8.1l-.2.2.2.3v3.9l-.6.4.2.5v4.6h-.7l-.8.4v1.1l.2.2v4.8h-27.8l-1.1-.2h-4.8l-.2.2v.9l.2.2v1.1l.2.2v12.5h-.9v.9l.3.4v5.5h84.4v-5.5l.2-.4v-.9h-.9v-12.5l.2-.2v-1.1l.2-.2v-.9l-.2-.2h-4.8l-1.1.2h-27.7v-4.8l.2-.2v-1.1l-.9-.4h-.7v-4.6l.3-.5-.7-.4v-3.9l.2-.3-.2-.2v-8.1l.2-.4-.2-.9.2-.4-.2-.2v-5.1l.2-.2-.2-1.1.4-1.3v-.9l.3-.2-.3-1.1.3-.2-.5-1.1-2.2-.4-.8.8h-1.5v-1h-.8l-.9-4.2.2-.4v-1h-.5v-1.8c.3.1 1.3.6 2.5.8 1.5.1.6 0 2.4.3 0 0-.1-.1-.1-.6s.5-.6.5-1-.3-.8-.3-1.1c-.1-.5-.1-.3-.1-.3-.8-.2-1.4.1-3.4-1-.8-.5-1.3-.6-1.5-.6v-.4h-.1zm-36 49.6c.1 0 .1.1.1.1v.1h-.1l-.1-.1.1-.1zm.7 0l.1.1-.1.1h-.1v-.1l.1-.1zm.7 0l.1.1-.1.1h-.1v-.1s0-.1.1-.1zm.7 0l.1.1-.1.1h-.1v-.1s0-.1.1-.1zm.7 0l.1.1-.1.1h-.1v-.1s0-.1.1-.1zm.7 0s0 .1.1.1l-.1.1h-.1v-.1s0-.1.1-.1zm.7 0s0 .1.1.1l-.1.1h-.1l-.1-.1c.1 0 .1-.1.2-.1zm.6 0c.1 0 .1.1.1.1v.1h-.1l-.1-.1c.1 0 .1-.1.1-.1zm.7 0c.1 0 .1.1.1.1v.1h-.1l-.1-.1.1-.1zm.7 0c.1 0 .1.1.1.1v.1h-.1l-.1-.1.1-.1zm.7 0c.1 0 .1.1.1.1v.1h-.1l-.1-.1.1-.1zm.7 0c.1 0 .1.1.1.1v.1h-.1l-.1-.1.1-.1zm.7 0l.1.1-.1.1h-.1v-.1s0-.1.1-.1zm.7 0l.1.1-.1.1h-.1v-.1s0-.1.1-.1zm.7 0l.1.1-.1.1h-.1v-.1s0-.1.1-.1zm.7 0l.1.1-.1.1h-.1v-.1s0-.1.1-.1zm.7 0s0 .1.1.1l-.1.1h-.1v-.1s0-.1.1-.1zm.7 0s0 .1.1.1l-.1.1h-.1l-.1-.1c.1 0 .1-.1.2-.1zm.6 0c.1 0 .1.1.1.1v.1h-.1l-.1-.1c.1 0 .1-.1.1-.1zm.7 0c.1 0 .1.1.1.1v.1h-.1l-.1-.1.1-.1zm.7 0c.1 0 .1.1.1.1v.1h-.1l-.1-.1.1-.1zm.7 0c.1 0 .1.1.1.1v.1h-.1l-.1-.1.1-.1zm.7 0c.1 0 .1.1.1.1v.1h-.1l-.1-.1.1-.1zm.7 0l.1.1-.1.1h-.1v-.1s0-.1.1-.1zm.7 0l.1.1-.1.1h-.1v-.1s0-.1.1-.1zm.7 0l.1.1-.1.1h-.1v-.1s0-.1.1-.1zm.7 0l.1.1-.1.1h-.1v-.1s0-.1.1-.1zm.7 0s0 .1.1.1l-.1.1h-.1l-.1-.1c.1 0 .1-.1.2-.1zm.6 0c.1 0 .1.1.2.1l-.1.1h-.1l-.1-.1c.1 0 .1-.1.1-.1zm.7 0c.1 0 .1.1.1.1v.1h-.1l-.1-.1c.1 0 .1-.1.1-.1zm.7 0c.1 0 .1.1.1.1v.1h-.1l-.1-.1.1-.1zm.7 0c.1 0 .1.1.1.1v.1h-.1l-.1-.1.1-.1zm.7 0c.1 0 .1.1.1.1v.1h-.1l-.1-.1.1-.1zm.7 0l.1.1v.1h-.2v-.1l.1-.1zm.7 0l.1.1-.1.1h-.1v-.1s0-.1.1-.1zm.7 0l.1.1-.1.1h-.1v-.1s0-.1.1-.1zm.7 0l.1.1-.1.1h-.1v-.1s0-.1.1-.1zm.7 0s0 .1.1.1l-.1.1h-.1v-.1s0-.1.1-.1zm.7 0s0 .1.1.1l-.1.1h-.1l-.1-.1c.1 0 .1-.1.2-.1zm.6 0c.1 0 .1.1.2.1l-.1.1h-.1l-.1-.1c.1 0 .1-.1.1-.1zm.7 0c.1 0 .1.1.1.1v.1h-.1l-.1-.1.1-.1zm16.8 0l.1.1-.1.1h-.1v-.1s0-.1.1-.1zm.7 0l.1.1-.1.1h-.1v-.1s0-.1.1-.1zm.7 0l.1.1-.1.1h-.1v-.1s0-.1.1-.1zm.7 0l.1.1-.1.1h-.1v-.1s0-.1.1-.1zm.7 0s0 .1.1.1l-.1.1h-.1v-.1s0-.1.1-.1zm.6 0c.1 0 .1.1.2.1l-.1.1h-.1l-.1-.1c.1 0 .1-.1.1-.1zm.7 0c.1 0 .1.1.1.1v.1h-.1l-.1-.1c.1 0 .1-.1.1-.1zm.7 0c.1 0 .1.1.1.1v.1h-.1l-.1-.1.1-.1zm.7 0c.1 0 .1.1.1.1v.1h-.1l-.1-.1.1-.1zm.7 0c.1 0 .1.1.1.1v.1h-.1l-.1-.1.1-.1zm.7 0l.1.1v.1h-.1l-.1-.1.1-.1zm.7 0l.1.1-.1.1h-.1v-.1s0-.1.1-.1zm.7 0l.1.1-.1.1h-.1v-.1s0-.1.1-.1zm.7 0l.1.1-.1.1h-.1v-.1s0-.1.1-.1zm.7 0l.1.1-.1.1h-.1v-.1s0-.1.1-.1zm.7 0s0 .1.1.1l-.1.1h-.1v-.1s0-.1.1-.1zm.6 0c.1 0 .1.1.2.1l-.1.1h-.1l-.1-.1c.1 0 .1-.1.1-.1zm.7 0c.1 0 .1.1.1.1v.1h-.1l-.1-.1c.1 0 .1-.1.1-.1zm.7 0c.1 0 .1.1.1.1v.1h-.1l-.1-.1.1-.1zm.7 0c.1 0 .1.1.1.1v.1h-.1l-.1-.1.1-.1zm.7 0c.1 0 .1.1.1.1v.1h-.1l-.1-.1.1-.1zm.7 0l.1.1v.1h-.2v-.1l.1-.1zm.7 0l.1.1-.1.1h-.1v-.1s0-.1.1-.1zm.7 0l.1.1-.1.1h-.1v-.1s0-.1.1-.1zm.7 0l.1.1-.1.1h-.1v-.1s0-.1.1-.1zm.7 0l.1.1-.1.1h-.1v-.1s0-.1.1-.1zm.7 0s0 .1.1.1l-.1.1h-.1l-.1-.1c.1 0 .1-.1.2-.1zm.6 0c.1 0 .1.1.2.1l-.1.1h-.1l-.1-.1c.1 0 .1-.1.1-.1zm.7 0c.1 0 .1.1.1.1v.1h-.1l-.1-.1.1-.1zm.7 0c.1 0 .1.1.1.1v.1h-.1l-.1-.1.1-.1zm.7 0c.1 0 .1.1.1.1v.1h-.1l-.1-.1.1-.1zm.7 0c.1 0 .1.1.1.1v.1h-.1l-.1-.1.1-.1zm.7 0l.1.1-.1.1h-.1v-.1l.1-.1zm.7 0l.1.1-.1.1h-.1v-.1s0-.1.1-.1zm.7 0l.1.1-.1.1h-.1v-.1s0-.1.1-.1zm.7 0l.1.1-.1.1h-.1v-.1s0-.1.1-.1zm.7 0s0 .1.1.1l-.1.1h-.1v-.1s0-.1.1-.1zm.7 0s0 .1.1.1l-.1.1h-.1l-.1-.1c.1 0 .1-.1.2-.1zm.6 0c.1 0 .1.1.2.1l-.1.1h-.1l-.1-.1c.1 0 .1-.1.1-.1zm.7 0c.1 0 .1.1.1.1v.1h-.1l-.1-.1.1-.1zm.7 0c.1 0 .1.1.1.1v.1h-.1l-.1-.1.1-.1zm-72.1.1v.2h-.1v-.1c0-.1 0-.1.1-.1zm.2 0c.1 0 .1 0 .1.1.1 0 .1.1 0 .1h-.1v-.2zm.5 0v.2h-.1c-.1 0-.1-.1 0-.1 0-.1 0-.1.1-.1zm.2 0c.1 0 .1 0 .1.1v.1h-.1v-.2zm.5 0v.2h-.1c-.1 0-.1-.1 0-.1 0-.1 0-.1.1-.1zm.2 0c.1 0 .1 0 .1.1v.1h-.1v-.2zm.5 0v.2h-.1c-.1 0-.1-.1 0-.1 0-.1 0-.1.1-.1zm.2 0s.1 0 .1.1v.1h-.1s0-.1-.1-.1l.1-.1zm.4 0h.1v.2h-.2v-.1l.1-.1zm.3 0s.1 0 .1.1v.1h-.1s0-.1-.1-.1l.1-.1zm.4 0l.1.1s0 .1-.1.1h-.1v-.1l.1-.1zm.3 0s.1 0 .1.1v.1h-.1s0-.1-.1-.1l.1-.1zm.4 0l.1.1-.1.1h-.1v-.1c0-.1.1-.1.1-.1zm.3 0s.1 0 .1.1v.1h-.1l-.1-.1.1-.1zm.4 0l.1.1-.1.1h-.1v-.1c0-.1.1-.1.1-.1zm.3 0l.1.1v.1h-.1l-.1-.1.1-.1zm.4 0l.1.1c-.1 0-.1.1-.1.1h-.1v-.1c0-.1.1-.1.1-.1zm.3 0l.1.1v.1h-.2v-.1l.1-.1zm.4 0l.1.1c-.1 0-.1.1-.1.1h-.1v-.1c0-.1.1-.1.1-.1zm.2 0c.1 0 .1 0 .2.1 0 0 0 .1-.1.1h-.1v-.2zm.5 0l.1.1c-.1 0-.1.1-.1.1h-.1v-.1c0-.1 0-.1.1-.1zm.2 0c.1 0 .1 0 .1.1.1 0 .1.1 0 .1h-.1v-.2zm.5 0v.2h-.1v-.1c0-.1 0-.1.1-.1zm.2 0c.1 0 .1 0 .1.1.1 0 .1.1 0 .1h-.1v-.2zm.5 0v.2h-.1c-.1 0-.1-.1 0-.1 0-.1 0-.1.1-.1zm.2 0c.1 0 .1 0 .1.1v.1h-.1v-.2zm.5 0v.2h-.1c-.1 0-.1-.1 0-.1 0-.1 0-.1.1-.1zm.2 0c.1 0 .1 0 .1.1v.1h-.1s0-.1-.1-.1l.1-.1zm.5 0v.2h-.1c-.1 0-.1-.1-.1-.1.1-.1.1-.1.2-.1zm.2 0s.1 0 .1.1v.1h-.1s0-.1-.1-.1l.1-.1zm.4 0l.1.1v.1h-.2v-.1l.1-.1zm.3 0s.1 0 .1.1v.1h-.1s0-.1-.1-.1l.1-.1zm.4 0l.1.1-.1.1h-.1v-.1l.1-.1zm.3 0s.1 0 .1.1v.1h-.1l-.1-.1.1-.1zm.4 0l.1.1-.1.1h-.1v-.1c0-.1.1-.1.1-.1zm.3 0s.1 0 .1.1v.1h-.1l-.1-.1.1-.1zm.4 0l.1.1c-.1 0-.1.1-.1.1h-.1v-.1c0-.1.1-.1.1-.1zm.3 0l.1.1v.1h-.1l-.1-.1.1-.1zm.4 0l.1.1c-.1 0-.1.1-.1.1h-.1v-.1c0-.1.1-.1.1-.1zm.2 0h.1l.1.1v.1h-.2v-.2zm.5 0l.1.1c-.1 0-.1.1-.1.1h-.1v-.1c0-.1.1-.1.1-.1zm.2 0c.1 0 .1 0 .1.1.1 0 .1.1 0 .1h-.1v-.2zm.5 0v.2h-.1v-.1c0-.1 0-.1.1-.1zm.2 0c.1 0 .1 0 .1.1.1 0 .1.1 0 .1h-.1v-.2zm.5 0v.2h-.1v-.1c0-.1 0-.1.1-.1zm.2 0c.1 0 .1 0 .1.1.1 0 .1.1 0 .1h-.1v-.2zm.5 0v.2h-.1c-.1 0-.1-.1 0-.1 0-.1 0-.1.1-.1zm.2 0c.1 0 .1 0 .1.1v.1h-.1v-.2zm.5 0v.2h-.1c-.1 0-.1-.1 0-.1 0-.1 0-.1.1-.1zm.2 0s.1 0 .1.1v.1h-.1s0-.1-.1-.1l.1-.1zm.5 0v.2h-.2v-.1c.1-.1.1-.1.2-.1zm.2 0s.1 0 .1.1v.1h-.1s0-.1-.1-.1l.1-.1zm.4 0l.1.1v.1h-.2v-.1l.1-.1zm.3 0s.1 0 .1.1v.1h-.1s0-.1-.1-.1l.1-.1zm.4 0l.1.1-.1.1h-.1v-.1c0-.1.1-.1.1-.1zm.3 0s.1 0 .1.1v.1h-.1l-.1-.1.1-.1zm.4 0l.1.1-.1.1h-.1v-.1c0-.1.1-.1.1-.1zm.3 0s.1 0 .1.1v.1h-.1l-.1-.1.1-.1zm.4 0l.1.1c-.1 0-.1.1-.1.1h-.1v-.1c0-.1.1-.1.1-.1zm.3 0l.1.1v.1h-.2v-.1l.1-.1zm.4 0l.1.1c-.1 0-.1.1-.1.1h-.1v-.1c0-.1.1-.1.1-.1zm.2 0h.1l.1.1v.1h-.2v-.2zm.5 0l.1.1c-.1 0-.1.1-.1.1h-.1v-.1c0-.1.1-.1.1-.1zm.2 0c.1 0 .1 0 .1.1.1 0 .1.1 0 .1h-.1v-.2zm.5 0v.2h-.1v-.1c0-.1 0-.1.1-.1zm.2 0c.1 0 .1 0 .1.1.1 0 .1.1 0 .1h-.1v-.2zm.5 0v.2h-.1v-.1c0-.1 0-.1.1-.1zm.2 0c.1 0 .1 0 .1.1.1 0 0 .1 0 .1h-.1v-.2zm.5 0v.2h-.1c-.1 0-.1-.1 0-.1 0-.1 0-.1.1-.1zm.2 0c.1 0 .1 0 .1.1v.1h-.1v-.2zm.5 0v.2h-.1c-.1 0-.1-.1 0-.1 0-.1 0-.1.1-.1zm.2 0s.1 0 .1.1v.1h-.1s0-.1-.1-.1l.1-.1zm.4 0h.1v.2h-.2v-.1l.1-.1zm.3 0s.1 0 .1.1v.1h-.1s0-.1-.1-.1l.1-.1zm.4 0l.1.1v.1h-.2v-.1l.1-.1zm.3 0s.1 0 .1.1v.1h-.1s0-.1-.1-.1l.1-.1zm.4 0l.1.1-.1.1h-.1v-.1c0-.1.1-.1.1-.1zm.3 0s.1 0 .1.1v.1h-.1l-.1-.1.1-.1zm.4 0l.1.1-.1.1h-.1v-.1c0-.1.1-.1.1-.1zm.3 0l.1.1v.1h-.1l-.1-.1.1-.1zm.4 0l.1.1c-.1 0-.1.1-.1.1h-.1v-.1c0-.1.1-.1.1-.1zm.3 0l.1.1v.1h-.2v-.1l.1-.1zm16.5 0v.2h-.1c-.1 0-.1-.1 0-.1 0-.1 0-.1.1-.1zm.2 0c.1 0 .1 0 .1.1v.1h-.1v-.2zm.5 0v.2h-.1c-.1 0-.1-.1 0-.1 0-.1 0-.1.1-.1zm.2 0c.1 0 .1 0 .1.1v.1h-.1s0-.1-.1-.1l.1-.1zm.5 0v.2h-.1c-.1 0-.1-.1-.1-.1.1-.1.1-.1.2-.1zm.2 0s.1 0 .1.1v.1h-.1s0-.1-.1-.1l.1-.1zm.4 0h.1v.2h-.2v-.1l.1-.1zm.3 0s.1 0 .1.1v.1h-.1s0-.1-.1-.1l.1-.1zm.4 0l.1.1-.1.1h-.1v-.1l.1-.1zm.3 0s.1 0 .1.1v.1h-.1l-.1-.1.1-.1zm.4 0l.1.1-.1.1h-.1v-.1c0-.1.1-.1.1-.1zm.3 0s.1 0 .1.1v.1h-.1l-.1-.1.1-.1zm.4 0l.1.1c-.1 0-.1.1-.1.1h-.1v-.1c0-.1.1-.1.1-.1zm.3 0l.1.1v.1h-.1l-.1-.1.1-.1zm.4 0l.1.1c-.1 0-.1.1-.1.1h-.1v-.1c0-.1.1-.1.1-.1zm.2 0h.1l.1.1v.1h-.2v-.2zm.5 0l.1.1c-.1 0-.1.1-.1.1h-.1v-.1c0-.1.1-.1.1-.1zm.2 0c.1 0 .1 0 .1.1.1 0 .1.1 0 .1h-.1v-.2zm.5 0l.1.1c-.1 0-.1.1-.1.1h-.1v-.1c0-.1 0-.1.1-.1zm.2 0c.1 0 .1 0 .1.1.1 0 .1.1 0 .1h-.1v-.2zm.5 0v.2h-.1v-.1c0-.1 0-.1.1-.1zm.2 0c.1 0 .1 0 .1.1.1 0 .1.1 0 .1h-.1v-.2zm.5 0v.2h-.1c-.1 0-.1-.1 0-.1 0-.1 0-.1.1-.1zm.2 0c.1 0 .1 0 .1.1v.1h-.1v-.2zm.5 0v.2h-.1c-.1 0-.1-.1 0-.1 0-.1 0-.1.1-.1zm.2 0c.1 0 .1 0 .1.1v.1h-.1s0-.1-.1-.1l.1-.1zm.5 0v.2h-.2v-.1c.1-.1.1-.1.2-.1zm.2 0s.1 0 .1.1v.1h-.1s0-.1-.1-.1l.1-.1zm.4 0l.1.1v.1h-.2v-.1l.1-.1zm.3 0s.1 0 .1.1v.1h-.1s0-.1-.1-.1l.1-.1zm.4 0l.1.1-.1.1h-.1v-.1l.1-.1zm.3 0s.1 0 .1.1v.1h-.1l-.1-.1.1-.1zm.4 0l.1.1-.1.1h-.1v-.1c0-.1.1-.1.1-.1zm.3 0s.1 0 .1.1v.1h-.1l-.1-.1.1-.1zm.4 0l.1.1c-.1 0-.1.1-.1.1h-.1v-.1c0-.1.1-.1.1-.1zm.3 0l.1.1v.1h-.1c-.1 0-.1-.1-.1-.1l.1-.1zm.4 0l.1.1c-.1 0-.1.1-.1.1h-.1v-.1c0-.1.1-.1.1-.1zm.2 0h.1l.1.1v.1h-.2v-.2zm.5 0l.1.1c-.1 0-.1.1-.1.1h-.1v-.1c0-.1.1-.1.1-.1zm.2 0c.1 0 .1 0 .1.1.1 0 .1.1 0 .1h-.1v-.2zm.5 0v.2h-.1v-.1c0-.1 0-.1.1-.1zm.2 0c.1 0 .1 0 .1.1.1 0 .1.1 0 .1h-.1v-.2zm.5 0v.2h-.1s-.1-.1 0-.1c0-.1 0-.1.1-.1zm.2 0c.1 0 .1 0 .1.1.1 0 0 .1 0 .1h-.1v-.2zm.5 0v.2h-.1c-.1 0-.1-.1 0-.1 0-.1 0-.1.1-.1zm.2 0c.1 0 .1 0 .1.1v.1h-.1v-.2zm.5 0v.2h-.1c-.1 0-.1-.1 0-.1 0-.1 0-.1.1-.1zm.2 0s.1 0 .1.1v.1h-.1s0-.1-.1-.1l.1-.1zm.4 0h.1v.2h-.2v-.1l.1-.1zm.3 0s.1 0 .1.1v.1h-.1s0-.1-.1-.1l.1-.1zm.4 0l.1.1v.1h-.2v-.1l.1-.1zm.3 0s.1 0 .1.1v.1h-.1s0-.1-.1-.1l.1-.1zm.4 0l.1.1-.1.1h-.1v-.1c0-.1.1-.1.1-.1zm.3 0s.1 0 .1.1v.1h-.1l-.1-.1.1-.1zm.4 0l.1.1-.1.1h-.1v-.1c0-.1.1-.1.1-.1zm.3 0s.1 0 .1.1v.1h-.1l-.1-.1.1-.1zm.4 0l.1.1c-.1 0-.1.1-.1.1h-.1v-.1c0-.1.1-.1.1-.1zm.3 0l.1.1v.1h-.2v-.1l.1-.1zm.4 0l.1.1c-.1 0-.1.1-.1.1h-.1v-.1c0-.1.1-.1.1-.1zm.2 0c.1 0 .1 0 .2.1v.1h-.2v-.2zm.5 0l.1.1c-.1 0-.1.1-.1.1h-.1v-.1c0-.1.1-.1.1-.1zm.2 0c.1 0 .1 0 .1.1.1 0 .1.1 0 .1h-.1v-.2zm.5 0v.2h-.1v-.1c0-.1 0-.1.1-.1zm.2 0c.1 0 .1 0 .1.1.1 0 .1.1 0 .1h-.1v-.2zm.5 0v.2h-.1s-.1-.1 0-.1c0-.1 0-.1.1-.1zm.2 0c.1 0 .1 0 .1.1.1 0 0 .1 0 .1h-.1v-.2zm.5 0v.2h-.1c-.1 0-.1-.1 0-.1 0-.1 0-.1.1-.1zm.2 0c.1 0 .1 0 .1.1v.1h-.1v-.2zm.5 0v.2h-.1c-.1 0-.1-.1 0-.1 0-.1 0-.1.1-.1zm.2 0s.1 0 .1.1v.1h-.1s0-.1-.1-.1l.1-.1zm.4 0h.1v.2h-.2v-.1l.1-.1zm.3 0s.1 0 .1.1v.1h-.1s0-.1-.1-.1l.1-.1zm.4 0l.1.1s0 .1-.1.1h-.1v-.1l.1-.1zm.3 0s.1 0 .1.1v.1h-.1s0-.1-.1-.1l.1-.1zm.4 0l.1.1-.1.1h-.1v-.1c0-.1.1-.1.1-.1zm.3 0s.1 0 .1.1v.1h-.1l-.1-.1.1-.1zm.4 0l.1.1-.1.1h-.1v-.1c0-.1.1-.1.1-.1zm.3 0l.1.1v.1h-.1l-.1-.1.1-.1zm.4 0l.1.1c-.1 0-.1.1-.1.1h-.1v-.1c0-.1.1-.1.1-.1zm.3 0l.1.1v.1h-.2v-.1l.1-.1zm.4 0l.1.1c-.1 0-.1.1-.1.1h-.1v-.1c0-.1.1-.1.1-.1zm.2 0c.1 0 .1 0 .2.1 0 0 0 .1-.1.1h-.1v-.2zm-72.3.2h.1v.2c-.1 0-.1 0-.1-.1v-.1zm.3 0h.1c.1.1.1.1 0 .1 0 .1 0 .1-.1.1v-.2zm.4 0h.1v.2c-.1 0-.1 0-.1-.1-.1 0-.1 0 0-.1zm.3 0h.1v.1c0 .1 0 .1-.1.1v-.2zm.4 0h.1v.2c-.1 0-.1 0-.1-.1-.1 0-.1 0 0-.1zm.3 0h.1v.1c0 .1 0 .1-.1.1v-.2zm.4 0h.1v.2c-.1 0-.1 0-.1-.1-.1 0-.1 0 0-.1zm.3 0h.1v.1c0 .1-.1.1-.1.1l-.1-.1c.1 0 .1 0 .1-.1zm.3 0h.2v.2c-.1 0-.1 0-.2-.1v-.1zm.4 0h.1v.1c0 .1-.1.1-.1.1l-.1-.1c.1 0 .1 0 .1-.1zm.3 0h.1l.1.1-.1.1-.1-.1v-.1zm.4 0h.1v.1c0 .1-.1.1-.1.1l-.1-.1c.1 0 .1 0 .1-.1zm.3 0h.1c0 .1.1.1.1.1l-.1.1s-.1 0-.1-.1v-.1zm.4 0h.1v.1c0 .1-.1.1-.1.1l-.1-.1s.1 0 .1-.1zm.3 0h.1c0 .1.1.1.1.1l-.1.1s-.1 0-.1-.1v-.1zm.4 0h.1v.1l-.1.1-.1-.1s.1 0 .1-.1zm.3 0h.1c0 .1 0 .1.1.1l-.1.1s-.1 0-.1-.1v-.1zm.3 0h.2v.1l-.1.1-.1-.1v-.1zm.4 0h.1c0 .1 0 .1.1.1l-.1.1s-.1 0-.1-.1v-.1zm.3 0h.1l.1.1c-.1.1-.1.1-.2.1v-.2zm.4 0h.1c0 .1 0 .1.1.1l-.1.1s-.1 0-.1-.1v-.1zm.3 0h.1c.1.1.1.1 0 .1 0 .1 0 .1-.1.1v-.2zm.4 0h.1v.2c-.1 0-.1 0-.1-.1v-.1zm.3 0h.1c.1.1.1.1 0 .1 0 .1 0 .1-.1.1v-.2zm.4 0h.1v.2c-.1 0-.1 0-.1-.1-.1 0-.1 0 0-.1zm.3 0h.1v.1c0 .1 0 .1-.1.1v-.2zm.4 0h.1v.2c-.1 0-.1 0-.1-.1-.1 0-.1 0 0-.1zm.3 0h.1v.1c0 .1-.1.1-.1.1l-.1-.1c.1 0 .1 0 .1-.1zm.4 0h.1v.2c-.1 0-.1 0-.2-.1l.1-.1zm.3 0h.1v.1c0 .1-.1.1-.1.1l-.1-.1c.1 0 .1 0 .1-.1zm.3 0h.2v.1l-.1.1-.1-.1v-.1zm.4 0h.1v.1c0 .1-.1.1-.1.1l-.1-.1c.1 0 .1 0 .1-.1zm.3 0h.1c0 .1.1.1.1.1l-.1.1-.1-.1v-.1zm.4 0h.1v.1c0 .1-.1.1-.1.1l-.1-.1s.1 0 .1-.1zm.3 0h.1c0 .1.1.1.1.1l-.1.1s-.1 0-.1-.1v-.1zm.4 0h.1v.1c0 .1-.1.1-.1.1l-.1-.1s.1 0 .1-.1zm.3 0h.1c0 .1 0 .1.1.1l-.1.1s-.1 0-.1-.1v-.1zm.4 0h.1v.1l-.1.1-.1-.1s.1 0 .1-.1zm.3 0h.1c0 .1 0 .1.1.1l-.1.1s-.1 0-.1-.1v-.1zm.3 0h.2v.1c-.1.1-.1.1-.2.1v-.2zm.4 0h.1c0 .1 0 .1.1.1l-.1.1s-.1 0-.1-.1v-.1zm.3 0h.1c.1.1.1.1 0 .1 0 .1 0 .1-.1.1v-.2zm.4 0h.1v.2s-.1 0-.1-.1v-.1zm.3 0h.1c.1.1.1.1 0 .1 0 .1 0 .1-.1.1v-.2zm.4 0h.1v.2c-.1 0-.1 0-.1-.1v-.1zm.3 0h.1c.1.1.1.1 0 .1 0 .1 0 .1-.1.1v-.2zm.4 0h.1v.2c-.1 0-.1 0-.1-.1-.1 0-.1 0 0-.1zm.3 0h.1v.1c0 .1 0 .1-.1.1v-.2zm.4 0h.1v.2c-.1 0-.1 0-.1-.1-.1 0-.1 0 0-.1zm.3 0h.1v.1c0 .1-.1.1-.1.1l-.1-.1c.1 0 .1 0 .1-.1zm.3 0h.2v.2c-.1 0-.1 0-.2-.1v-.1zm.4 0h.1v.1c0 .1-.1.1-.1.1l-.1-.1c.1 0 .1 0 .1-.1zm.3 0h.2v.1l-.1.1-.1-.1v-.1zm.4 0h.1v.1c0 .1-.1.1-.1.1l-.1-.1c.1 0 .1 0 .1-.1zm.3 0h.1c0 .1.1.1.1.1l-.1.1-.1-.1v-.1zm.4 0h.1v.1c0 .1-.1.1-.1.1l-.1-.1s.1 0 .1-.1zm.3 0h.1c0 .1.1.1.1.1l-.1.1s-.1 0-.1-.1v-.1zm.4 0h.1v.1c0 .1-.1.1-.1.1l-.1-.1s.1 0 .1-.1zm.3 0h.1c0 .1 0 .1.1.1l-.1.1s-.1 0-.1-.1v-.1zm.3 0h.2v.1l-.1.1-.1-.1v-.1zm.4 0h.1c0 .1 0 .1.1.1l-.1.1s-.1 0-.1-.1v-.1zm.3 0h.2v.1c-.1.1-.1.1-.2.1v-.2zm.4 0h.1c0 .1 0 .1.1.1l-.1.1s-.1 0-.1-.1v-.1zm.3 0h.1c.1.1.1.1 0 .1 0 .1 0 .1-.1.1v-.2zm.4 0h.1v.2c-.1 0-.1 0-.1-.1v-.1zm.3 0h.1c.1.1.1.1 0 .1 0 .1 0 .1-.1.1v-.2zm.4 0h.1v.2c-.1 0-.1 0-.1-.1v-.1zm.3 0h.1c0 .1.1.1 0 .1 0 .1 0 .1-.1.1v-.2zm.4 0h.1v.2c-.1 0-.1 0-.1-.1-.1 0-.1 0 0-.1zm.3 0h.1v.1c0 .1 0 .1-.1.1v-.2zm.4 0h.1v.2c-.1 0-.1 0-.1-.1-.1 0-.1 0 0-.1zm.3 0h.1v.1c0 .1-.1.1-.1.1l-.1-.1c.1 0 .1 0 .1-.1zm.3 0h.2v.2c-.1 0-.1 0-.2-.1v-.1zm.4 0h.1v.1c0 .1-.1.1-.1.1l-.1-.1c.1 0 .1 0 .1-.1zm.3 0h.2v.1l-.1.1-.1-.1v-.1zm.4 0h.1v.1c0 .1-.1.1-.1.1l-.1-.1c.1 0 .1 0 .1-.1zm.3 0h.1c0 .1.1.1.1.1l-.1.1-.1-.1v-.1zm.4 0h.1v.1c0 .1-.1.1-.1.1l-.1-.1s.1 0 .1-.1zm.3 0h.1c0 .1.1.1.1.1l-.1.1s-.1 0-.1-.1v-.1zm.4 0h.1v.1l-.1.1-.1-.1s.1 0 .1-.1zm.3 0h.1c0 .1 0 .1.1.1l-.1.1s-.1 0-.1-.1v-.1zm.3 0h.2v.1l-.1.1-.1-.1v-.1zm16.5 0h.1v.2c-.1 0-.1 0-.1-.1-.1 0-.1 0 0-.1zm.3 0h.1v.1c0 .1 0 .1-.1.1v-.2zm.4 0h.1v.2c-.1 0-.1 0-.1-.1-.1 0-.1 0 0-.1zm.3 0h.1v.1c0 .1-.1.1-.1.1l-.1-.1c.1 0 .1 0 .1-.1zm.4 0h.1v.2c-.1 0-.1 0-.2-.1l.1-.1zm.3 0h.1v.1c0 .1-.1.1-.1.1l-.1-.1c.1 0 .1 0 .1-.1zm.3 0h.2v.2c-.1 0-.1 0-.2-.1v-.1zm.4 0h.1v.1c0 .1-.1.1-.1.1l-.1-.1c.1 0 .1 0 .1-.1zm.3 0h.1c0 .1.1.1.1.1l-.1.1-.1-.1v-.1zm.4 0h.1v.1c0 .1-.1.1-.1.1l-.1-.1s.1 0 .1-.1zm.3 0h.1c0 .1.1.1.1.1l-.1.1s-.1 0-.1-.1v-.1zm.4 0h.1v.1c0 .1-.1.1-.1.1l-.1-.1s.1 0 .1-.1zm.3 0h.1c0 .1 0 .1.1.1l-.1.1s-.1 0-.1-.1v-.1zm.4 0h.1v.1l-.1.1-.1-.1s.1 0 .1-.1zm.3 0h.1c0 .1 0 .1.1.1l-.1.1s-.1 0-.1-.1v-.1zm.3 0h.2v.1c-.1.1-.1.1-.2.1v-.2zm.4 0h.1c0 .1 0 .1.1.1l-.1.1s-.1 0-.1-.1v-.1zm.3 0h.1c.1.1.1.1 0 .1 0 .1 0 .1-.1.1v-.2zm.4 0h.1c0 .1 0 .1.1.1l-.1.1s-.1 0-.1-.1v-.1zm.3 0h.1c.1.1.1.1 0 .1 0 .1 0 .1-.1.1v-.2zm.4 0h.1v.2c-.1 0-.1 0-.1-.1v-.1zm.3 0h.1c.1.1.1.1 0 .1 0 .1 0 .1-.1.1v-.2zm.4 0h.1v.2c-.1 0-.1 0-.1-.1-.1 0-.1 0 0-.1zm.3 0h.1v.1c0 .1 0 .1-.1.1v-.2zm.4 0h.1v.2c-.1 0-.1 0-.1-.1-.1 0-.1 0 0-.1zm.3 0h.1v.1c0 .1-.1.1-.1.1l-.1-.1c.1 0 .1 0 .1-.1zm.3 0h.2v.2c-.1 0-.1 0-.2-.1v-.1zm.4 0h.1v.1c0 .1-.1.1-.1.1l-.1-.1c.1 0 .1 0 .1-.1zm.3 0h.2v.1l-.1.1-.1-.1v-.1zm.4 0h.1v.1c0 .1-.1.1-.1.1l-.1-.1c.1 0 .1 0 .1-.1zm.3 0h.1c0 .1.1.1.1.1l-.1.1-.1-.1v-.1zm.4 0h.1v.1c0 .1-.1.1-.1.1l-.1-.1s.1 0 .1-.1zm.3 0h.1c0 .1.1.1.1.1l-.1.1s-.1 0-.1-.1v-.1zm.4 0h.1v.1c0 .1-.1.1-.1.1l-.1-.1s.1 0 .1-.1zm.3 0h.1c0 .1 0 .1.1.1l-.1.1s-.1 0-.1-.1v-.1zm.4 0h.1v.1l-.1.1-.1-.1.1-.1zm.3 0h.1c0 .1 0 .1.1.1l-.1.1s-.1 0-.1-.1v-.1zm.3 0h.2v.1c-.1.1-.1.1-.2.1v-.2zm.4 0h.1c0 .1 0 .1.1.1l-.1.1s-.1 0-.1-.1v-.1zm.3 0h.1c.1.1.1.1 0 .1 0 .1 0 .1-.1.1v-.2zm.4 0h.1v.2c-.1 0-.1 0-.1-.1v-.1zm.3 0h.1c.1.1.1.1 0 .1 0 .1 0 .1-.1.1v-.2zm.4 0h.1v.2c-.1 0-.1 0-.1-.1-.1 0 0 0 0-.1zm.3 0h.1c0 .1.1.1 0 .1 0 .1 0 .1-.1.1v-.2zm.4 0h.1v.2c-.1 0-.1 0-.1-.1-.1 0-.1 0 0-.1zm.3 0h.1v.1c0 .1 0 .1-.1.1v-.2zm.4 0h.1v.2c-.1 0-.1 0-.1-.1-.1 0-.1 0 0-.1zm.3 0h.1v.1c0 .1-.1.1-.1.1l-.1-.1c.1 0 .1 0 .1-.1zm.3 0h.2v.2c-.1 0-.1 0-.2-.1v-.1zm.4 0h.1v.1c0 .1-.1.1-.1.1l-.1-.1c.1 0 .1 0 .1-.1zm.3 0h.2v.1l-.1.1-.1-.1v-.1zm.4 0h.1v.1c0 .1-.1.1-.1.1l-.1-.1c.1 0 .1 0 .1-.1zm.3 0h.1c0 .1.1.1.1.1l-.1.1s-.1 0-.1-.1v-.1zm.4 0h.1v.1c0 .1-.1.1-.1.1l-.1-.1s.1 0 .1-.1zm.3 0h.1c0 .1.1.1.1.1l-.1.1s-.1 0-.1-.1v-.1zm.4 0h.1v.1l-.1.1-.1-.1s.1 0 .1-.1zm.3 0h.1c0 .1 0 .1.1.1l-.1.1s-.1 0-.1-.1v-.1zm.3 0h.2v.1l-.1.1-.1-.1v-.1zm.4 0h.1c0 .1 0 .1.1.1l-.1.1s-.1 0-.1-.1v-.1zm.3 0h.2v.1c-.1.1-.1.1-.2.1v-.2zm.4 0h.1c0 .1 0 .1.1.1l-.1.1s-.1 0-.1-.1v-.1zm.3 0h.1c.1.1.1.1 0 .1 0 .1 0 .1-.1.1v-.2zm.4 0h.1v.2c-.1 0-.1 0-.1-.1v-.1zm.3 0h.1c.1.1.1.1 0 .1 0 .1 0 .1-.1.1v-.2zm.4 0h.1v.2c-.1 0-.1 0-.1-.1-.1 0 0 0 0-.1zm.3 0h.1c0 .1.1.1 0 .1 0 .1 0 .1-.1.1v-.2zm.4 0h.1v.2c-.1 0-.1 0-.1-.1-.1 0-.1 0 0-.1zm.3 0h.1v.1c0 .1 0 .1-.1.1v-.2zm.4 0h.1v.2c-.1 0-.1 0-.1-.1-.1 0-.1 0 0-.1zm.3 0h.1v.1c0 .1-.1.1-.1.1l-.1-.1c.1 0 .1 0 .1-.1zm.3 0h.2v.2c-.1 0-.1 0-.2-.1v-.1zm.4 0h.1v.1c0 .1-.1.1-.1.1l-.1-.1c.1 0 .1 0 .1-.1zm.3 0h.1l.1.1-.1.1-.1-.1v-.1zm.4 0h.1v.1c0 .1-.1.1-.1.1l-.1-.1c.1 0 .1 0 .1-.1zm.3 0h.1c0 .1.1.1.1.1l-.1.1s-.1 0-.1-.1v-.1zm.4 0h.1v.1c0 .1-.1.1-.1.1l-.1-.1s.1 0 .1-.1zm.3 0h.1c0 .1.1.1.1.1l-.1.1s-.1 0-.1-.1v-.1zm.4 0h.1v.1l-.1.1-.1-.1s.1 0 .1-.1zm.3 0h.1c0 .1 0 .1.1.1l-.1.1s-.1 0-.1-.1v-.1zm.3 0h.2v.1l-.1.1-.1-.1v-.1zm.4 0h.1c0 .1 0 .1.1.1l-.1.1s-.1 0-.1-.1v-.1zm.3 0h.1l.1.1c-.1.1-.1.1-.2.1v-.2zm-72.1.1h.1v.1s0 .1-.1.1l-.1-.1.1-.1zm.6 0h.1l.1.1-.1.1-.1-.1v-.1zm.7 0h.1l.1.1-.1.1c-.1 0-.1-.1-.1-.1v-.1zm.7 0h.1l.1.1-.1.1c-.1 0-.1-.1-.1-.1v-.1zm.7 0h.1l.1.1-.1.1c-.1 0-.1-.1-.1-.1v-.1zm.7 0h.1l.1.1c-.1 0-.1.1-.1.1-.1 0-.1-.1-.1-.1v-.1zm.7 0h.1l.1.1c-.1 0-.1.1-.1.1-.1 0-.1-.1-.2-.1l.1-.1zm.7 0h.1v.1s0 .1-.1.1c0 0 0-.1-.1-.1l.1-.1zm.7 0h.1v.1s0 .1-.1.1l-.1-.1.1-.1zm.7 0h.1v.1s0 .1-.1.1l-.1-.1.1-.1zm.7 0h.1v.1s0 .1-.1.1l-.1-.1.1-.1zm.7 0h.1v.1s0 .1-.1.1l-.1-.1.1-.1zm.6 0h.1l.1.1-.1.1c-.1 0-.1-.1-.1-.1v-.1zm.7 0h.1l.1.1-.1.1c-.1 0-.1-.1-.1-.1v-.1zm.7 0h.1l.1.1-.1.1c-.1 0-.1-.1-.1-.1v-.1zm.7 0h.1l.1.1-.1.1c-.1 0-.1-.1-.1-.1v-.1zm.7 0h.1l.1.1c-.1 0-.1.1-.1.1-.1 0-.1-.1-.1-.1v-.1zm.7 0h.1l.1.1c-.1 0-.1.1-.1.1-.1 0-.1-.1-.2-.1l.1-.1zm.7 0h.1v.1s0 .1-.1.1c0 0 0-.1-.1-.1l.1-.1zm.7 0h.1v.1s0 .1-.1.1l-.1-.1.1-.1zm.7 0h.1v.1s0 .1-.1.1l-.1-.1.1-.1zm.7 0h.1v.1s0 .1-.1.1l-.1-.1.1-.1zm.7 0h.1v.1s0 .1-.1.1l-.1-.1.1-.1zm.6 0h.1l.1.1-.1.1c-.1 0-.1-.1-.1-.1v-.1zm.7 0h.1l.1.1-.1.1c-.1 0-.1-.1-.1-.1v-.1zm.7 0h.1l.1.1-.1.1c-.1 0-.1-.1-.1-.1v-.1zm.7 0h.1l.1.1-.1.1c-.1 0-.1-.1-.1-.1v-.1zm.7 0h.1l.1.1c-.1 0-.1.1-.1.1-.1 0-.1-.1-.2-.1l.1-.1zm.7 0h.1l.1.1c-.1 0-.1.1-.2.1 0 0 0-.1-.1-.1l.1-.1zm.7 0h.1v.1s0 .1-.1.1c0 0 0-.1-.1-.1l.1-.1zm.7 0h.1v.1s0 .1-.1.1l-.1-.1.1-.1zm.7 0h.1v.1s0 .1-.1.1l-.1-.1.1-.1zm.7 0h.1v.1s0 .1-.1.1l-.1-.1.1-.1zm.6 0h.2v.1l-.1.1-.1-.1v-.1zm.7 0h.1l.1.1-.1.1c-.1 0-.1-.1-.1-.1v-.1zm.7 0h.1l.1.1-.1.1c-.1 0-.1-.1-.1-.1v-.1zm.7 0h.1l.1.1-.1.1c-.1 0-.1-.1-.1-.1v-.1zm.7 0h.1l.1.1c-.1 0-.1.1-.1.1-.1 0-.1-.1-.1-.1v-.1zm.7 0h.1l.1.1c-.1 0-.1.1-.1.1-.1 0-.1-.1-.2-.1l.1-.1zm.7 0h.1l.1.1c-.1 0-.1.1-.2.1 0 0 0-.1-.1-.1l.1-.1zm.7 0h.1v.1s0 .1-.1.1l-.1-.1.1-.1zm16.7 0h.1l.1.1-.1.1c-.1 0-.1-.1-.1-.1v-.1zm.7 0h.1l.1.1-.1.1c-.1 0-.1-.1-.1-.1v-.1zm.7 0h.1l.1.1-.1.1c-.1 0-.1-.1-.1-.1v-.1zm.7 0h.1l.1.1-.1.1c-.1 0-.1-.1-.1-.1v-.1zm.7 0h.1l.1.1c-.1 0-.1.1-.1.1-.1 0-.1-.1-.1-.1v-.1zm.7 0h.1l.1.1c-.1 0-.1.1-.2.1 0 0 0-.1-.1-.1l.1-.1zm.7 0h.1v.1s0 .1-.1.1c0 0 0-.1-.1-.1l.1-.1zm.7 0h.1v.1s0 .1-.1.1l-.1-.1.1-.1zm.7 0h.1v.1s0 .1-.1.1l-.1-.1.1-.1zm.7 0h.1v.1s0 .1-.1.1l-.1-.1.1-.1zm.7 0h.1v.1l-.1.1-.1-.1.1-.1zm.6 0h.1l.1.1-.1.1c-.1 0-.1-.1-.1-.1v-.1zm.7 0h.1l.1.1-.1.1c-.1 0-.1-.1-.1-.1v-.1zm.7 0h.1l.1.1-.1.1c-.1 0-.1-.1-.1-.1v-.1zm.7 0h.1l.1.1-.1.1c-.1 0-.1-.1-.1-.1v-.1zm.7 0h.1l.1.1c-.1 0-.1.1-.1.1-.1 0-.1-.1-.1-.1v-.1zm.7 0h.1l.1.1c-.1 0-.1.1-.2.1 0 0 0-.1-.1-.1l.1-.1zm.7 0h.1v.1s0 .1-.1.1c0 0 0-.1-.1-.1l.1-.1zm.7 0h.1v.1s0 .1-.1.1l-.1-.1.1-.1zm.7 0h.1v.1s0 .1-.1.1l-.1-.1.1-.1zm.7 0h.1v.1s0 .1-.1.1l-.1-.1.1-.1zm.6 0h.2v.1l-.1.1-.1-.1v-.1zm.7 0h.1l.1.1-.1.1c-.1 0-.1-.1-.1-.1v-.1zm.7 0h.1l.1.1-.1.1c-.1 0-.1-.1-.1-.1v-.1zm.7 0h.1l.1.1-.1.1c-.1 0-.1-.1-.1-.1v-.1zm.7 0h.1l.1.1-.1.1c-.1 0-.1-.1-.1-.1v-.1zm.7 0h.1l.1.1c-.1 0-.1.1-.1.1-.1 0-.1-.1-.2-.1l.1-.1zm.7 0h.1l.1.1c-.1 0-.1.1-.2.1 0 0 0-.1-.1-.1l.1-.1zm.7 0h.1v.1s0 .1-.1.1l-.1-.1.1-.1zm.7 0h.1v.1s0 .1-.1.1l-.1-.1.1-.1zm.7 0h.1v.1s0 .1-.1.1l-.1-.1.1-.1zm.7 0h.1v.1s0 .1-.1.1l-.1-.1.1-.1zm.6 0h.1l.1.1-.1.1-.1-.1v-.1zm.7 0h.1l.1.1-.1.1c-.1 0-.1-.1-.1-.1v-.1zm.7 0h.1l.1.1-.1.1c-.1 0-.1-.1-.1-.1v-.1zm.7 0h.1l.1.1-.1.1c-.1 0-.1-.1-.1-.1v-.1zm.7 0h.1l.1.1c-.1 0-.1.1-.1.1-.1 0-.1-.1-.1-.1v-.1zm.7 0h.1l.1.1c-.1 0-.1.1-.1.1-.1 0-.1-.1-.2-.1l.1-.1zm.7 0h.1l.1.1c-.1 0-.1.1-.2.1 0 0 0-.1-.1-.1l.1-.1zm.7 0h.1v.1s0 .1-.1.1l-.1-.1.1-.1zm.7 0h.1v.1s0 .1-.1.1l-.1-.1.1-.1z"/><path d="M39.838 181.314c-1.4 0-2.7.2-4.1.4-4.5 1-9.3 3.1-15 6.1-5.6 3-12.5 7.8-18.2 12.7h-1.8v2.8h70.4v-2.8h-12.6c-.8-3-1.5-5.5-2.9-8.7-1.6-3.3-4.9-6.9-7.7-8.6-2-1.2-5-1.9-8.1-1.9zm-22.8 13l-.3.5c-.1.2-.1.4.1.5.6-.1.8-.1.7.2h-.2s.2 2.3.3 2.4c.1 0 .3.5.3.5l.1 2.1h-10.8c2.1-2.1 4.3-4.2 9.8-6.2z"/><path d="M109.938 172.714c-6.4 5.7-13.2 10.5-22.3 9.7-4.8 3.2-9.1 7.5-16.3 6.4l.7 17.1h109.6l.9-12.8c-1.2-1-1.8-2.5-2.7-3.8-1.9.5-3.7 1.2-6.6.9l-6.7-1.6 1-1.9-4.6 1.5h-1.7l-4.9-1.6.4 2.2c-3.2 1.1-5.7.5-8.1-.6-2.4 1.7-4.8 3.4-7.5 4.2l.7 4.2h-1.9l-.1 2.3h-5.4l.1-11.4c-15 1.2-18.3-8.3-24.6-14.8z"/><path d="M337.838 147.814c-.1.5-.3.5-.3.6 0 0 .2.1.3.4l-.3.4h-.6l.3.5-.3.6h.7l.2.4c0 .1-.2.1-.2.2l.1.1c0 .3 0 .7-.1 1-.1 0-.3.1-.3.3-.3.2-.6.5-.6 1 0 .6.4 1 1 1.1v.6s-.1 0-.1.1l.1.1-.1.9s-.3 0-.3.3.3.3.3.3-.8.4-1 .6c-.1.2-.1.5-.1.5-8.4 1.9-12.1 9.8-9.9 16v.6l-.6.3v.9l-.3.3h-.3l-.3.3h-.7v6.1l.4.3v5.8l-.7 1.5v1.2h-1.8v-.9h-.6v-1.8l-.3-.3v-2.8l.3-.3v-3l.3-.3v-.6l-.3-.3v-.3l-.6-.6c.5-3-1.2-4.4-2.6-4.7v-.2c-.1-.1-.2-.1-.3-.3v-.2s.2 0 .2-.1h-.2v-.2c.2-.1.3-.2.3-.4s-.1-.4-.3-.5v-.1s.2 0 .2-.1h-.2v-.1s.1 0 .1-.1h-.1v-.4c.1 0 .2-.1.2-.2v-.3s-.1.1-.2.3c0-.2-.1-.3-.2-.3-.1.1-.1.2-.1.3l-.3-.3.1.3c0 .1.1.2.2.2v.4h-.1c0 .1.1.1.1.1v.1h-.2c0 .1.2.1.2.1v.1c-.2.1-.3.3-.3.5s.1.3.3.4v.2h-.2c0 .1.2.1.2.1v.2l-.3.3v.2c-1.3.2-3.2 1.6-2.6 4.7l-.6.6v.3l-.3.3v.6l.3.3v3l.3.3v2.8l-.3.3v1.8h-.6v2.5h-.6l.6 1.5v8.2h48.1v-8.2l.7-1.5h-.7v-2.5h-.6v-1.8l-.3-.3v-2.8l.3-.3v-3l.3-.3v-.6l-.3-.3v-.3l-.6-.6c.6-3.1-1.2-4.5-2.6-4.7v-.2l-.3-.3v-.2s.2 0 .2-.1h-.2v-.2c.2-.1.3-.2.3-.4s-.1-.4-.3-.5v-.1s.2 0 .2-.1h-.2v-.1s.1 0 .1-.1h-.1v-.4c.1 0 .2-.1.2-.2l.1-.3c-.1.1-.2.2-.2.3-.1-.1-.1-.2-.2-.3-.1 0-.2.1-.2.3 0-.2-.1-.3-.2-.3v.3c0 .1.1.2.2.2v.4h-.1c0 .1.1.1.1.1v.1h-.1c0 .1.1.1.1.1v.1c-.2.1-.3.3-.3.5s.1.3.3.4v.2h-.1c0 .1.1.1.1.1v.2c0 .2-.2.2-.3.3v.2c-1.3.3-3.1 1.7-2.6 4.7l-.6.6v.3l-.3.3v.6l.3.3v3l.3.3v2.8l-.3.3v1.8h-.6v.9h-1.8v-1.2l-.6-1.5v-5.8l.3-.3v-6.1h-.6l-.3-.3h-.3l-.4-.3v-.9l-.6-.3v-.6c2.2-6.2-1.5-14.1-9.8-16 0 0 0-.3-.2-.5s-.9-.6-.9-.6.3 0 .3-.3-.4-.3-.4-.3l-.1-.9.2-.1c0-.1-.2-.1-.2-.1v-.6c.6-.1 1-.5 1-1.1 0-.5-.2-.8-.6-1 .1-.2-.1-.3-.3-.3-.1-.3-.1-.7-.1-1l.1-.1c0-.1-.2-.1-.2-.2l.3-.4h.6l-.3-.5.3-.6h-.7l-.2-.4c.1-.3.2-.4.2-.4 0-.1-.1-.1-.3-.6zm0 1.2l.2.2H337.738l.1-.2zm-.6.4h.2v.1l-.1.1-.1-.2zm.4 0h.5l.1.2.1.2-.1.1-.1.2h-.5l-.1-.2-.1-.2.1-.1.1-.2zm.6 0h.3l-.1.2-.1-.1-.1-.1zm-.9.5l.1.1.1.1h-.3l.1-.2zm1.1 0l.1.2h-.2v-.1l.1-.1zm-.7.4H338.038l-.1.2-.2-.2z"/><path d="M431.338 188.314l-.8.1-.1.1h.1l.3.5v.4c-2 2.5-4.1 4.7-6.1 6.6-.1 0-.1-.1-.1-.1h-.1c-.1.1-.1.1-.2.3h.1c-.1.1-.1.2-.2.2l-3.7.2v-.1s-.1 0 0 0v-.1c0-.1-.1-.2-.1-.2h-.1c-.1 0-.2.1-.2.2h.1v.1l-.1.1v.1l-3.8.1v-.1c-.1 0-.1 0 0 0v-.1c0-.1-.1-.2-.2-.2s-.2.1-.2.2v.1c.1 0 .1 0 0 0v.2l-3.5 1.7v8.5h2.3c.5-3.7 4.4-6.4 7.4-6.3 3 0 5.9 1.3 7.4 5.1h.3v1.2h3.9v-7.7s6-.1 7.3-.1c1.2 0 7.3.1 7.3.1v7.7h3.9v-1.2h.3c1.5-3.8 4.4-5.1 7.3-5.1 3-.1 7 2.6 7.5 6.3h2.3V198.614h-.1l-3.4-1.7v-.1h-.1v-.2h.1c-.1-.1-.1-.2-.2-.2h-.1c-.1 0-.1.1-.1.2v.1c.1 0 0 0 0 0v.1h-.1l-3.7-.1v-.1h-.1v-.1s-.1 0 0 0v-.1c0-.1-.1-.2-.1-.2h-.1c-.1 0-.1.1-.2.2h.1v.2h-.1l-3.6-.2c-.1 0-.2-.1-.2-.2 0-.2-.1-.2-.1-.3h-.1c-.1 0-.1.1-.1.1-2-1.9-4.1-4.1-6.2-6.6v-.4l.4-.5h.1l-.1-.1-.9-.1-.8.1-.1.1h.1l.4.5v.5c-1.8 2.4-3.7 4.5-5.8 6.3h-3.4v.1h.7v.4h-.7v.1h.7v.5h-.7v.1h.7v.5h-.7v.1h.7v.2c-.1.1-.3.2-.5.3h-.5c-.2-.1-.3-.2-.5-.3v-.2h.7v-.1h-.7v-.5h.7v-.1h-.7v-.5h.7v-.1h-.7v-.4h.7v-.1h-3.3c-2.2-1.8-4.1-3.9-5.8-6.3v-.5l.4-.5h.1l-.1-.1-.9-.1zm-.5 1.3v.6c-.1-.1-.2-.2-.3-.2l-.1.1c.2-.2.3-.4.4-.5zm20.3 0c.2.1.3.3.5.5-.1 0-.1-.1-.2-.1s-.2.1-.2.2h-.1v-.6zm-19.3.1c1.7 2.3 3.5 4.4 5.6 6.1h-.5c-1.9-1.3-3.6-3-5.1-4.9v-1.2zm18.4 0v1.2c-1.5 1.9-3.2 3.6-5.1 4.9h-.6c2.1-1.7 4-3.8 5.7-6.1zm-19.9.5v.1c-1.6 2.2-3.4 4.2-5.5 6h-.1v-.1h.1c0-.1-.1-.1-.1-.1 1.9-1.7 3.7-3.7 5.6-5.9zm21.4 0c1.9 2.2 3.7 4.2 5.5 5.9v.1h.1c0 .1 0 .1-.1.1-2.2-1.8-4-3.8-5.5-6v-.1zm-20.9.2v.4c-.3.8-.7 1.6-1.2 2.4.2-.3.3-.6.5-.9.2-.5.4-1 .5-1.4.1-.2.1-.3.2-.4v-.1zm20.3 0h.1v.1c0 .1.1.2.2.4.1.4.3.9.5 1.4.2.3.3.6.4.9-.4-.8-.9-1.6-1.2-2.4v-.4zm-20.8 0c0 .1.1.2.2.2s.1 0 .1-.1c0 .1 0 .3-.1.4-.1.4-.3.8-.5 1.3s-.5 1-.6 1.3c-.1.1-.1.2-.1.3-.2.1-.4.3-.6.4-.4.3-.7.7-1 1.2v-.3c0-.1-.1-.1-.1-.1v.4c-.2.1-.5.2-.6.4l-.3-.2h-.1c0 .1 0 .1.1.1l.2.2c-.1.1-.1.2-.2.4h-.8c-.5.1-.8.1-1 .1 2.1-1.8 3.9-3.8 5.4-6zm21.4 0c1.5 2.2 3.3 4.2 5.4 6-.2 0-.5 0-1-.1h-.9c0-.2-.1-.3-.2-.4l.3-.2v-.1l-.3.2c-.2-.2-.4-.3-.7-.4l.1-.3v-.1h-.1v.4c-.4-.5-.7-.9-1.1-1.2-.1-.1-.3-.3-.5-.4 0-.1-.1-.2-.1-.3-.2-.3-.4-.8-.6-1.3-.2-.5-.4-.9-.5-1.3-.1-.1-.1-.3-.2-.4l.1.1c.2 0 .2-.1.3-.2zm-20.9.7v2c-.4.2-.9.3-1.3.6.5-.9 1-1.7 1.3-2.6zm20.3 0c.4.9.9 1.7 1.4 2.6-.4-.3-.9-.4-1.4-.6v-2zm-19.3 0c1.5 1.8 3.1 3.4 4.9 4.7h-.8c-.2-.3-.4-.7-.6-.9-.7-.7-1.7-1.5-3.1-1.6.1-.1.1-.2.2-.3h-.6v-1.9zm18.4 0v1.9h-.7l.3.3c-1.5.1-2.5.9-3.1 1.6-.3.2-.5.6-.6.9h-.8c1.8-1.3 3.4-2.9 4.9-4.7zm-18 2.4c1.3.1 2.2.7 2.9 1.5.2.3.4.5.5.8H431.838v-2h.4v-.3zm17.6 0v.3h.3v2H446.338c.2-.3.4-.5.6-.8.7-.8 1.5-1.4 2.9-1.5zm-18.9.6v2h-1.8c-.1-.8.7-1.9 1.8-2zm20.2 0c1 .1 1.9 1.2 1.7 2h-1.7v-2zm-23.6 1.6c-.1.2-.3.4-.4.5l-.1.1c.1-.3.3-.5.5-.6zm27 0c.2.1.4.3.5.6l-.1-.1c-.2-.1-.3-.3-.4-.5zm-14.4.2v.4h-1.9c-.2-.1-.3-.2-.5-.4h2.4zm1.8 0h2.4c-.2.2-.4.3-.5.4h-1.9v-.4zm-4.3 0c.1.2.3.3.4.4h-.4c-.2-.1-.4-.2-.6-.4h.6zm6.8 0h.6c-.2.2-.4.3-.6.4h-.5c.2-.1.3-.2.5-.4zm-7.8 0v.4h-.5c-.1-.1-.1-.2-.2-.4h.7zm.1 0h.1c.2.2.4.3.6.4h-.7v-.4zm8.4 0h.1v.4h-.6c.1-.1.3-.2.5-.4zm.2 0h.7c0 .2-.1.3-.1.4h-.6v-.4zm-9.6 0c.1.2.1.3.2.4l-2.8.1v-.5h2.6zm10.6 0h2.5v.5l-2.7-.1c.1-.1.1-.2.2-.4zm-13.3 0v.5h-1v-.5h1zm15.9 0h1.1v.5h-1.1v-.5zm-18 .3v.4h-1.6c-.1-.1-.1-.2-.1-.3l1.7-.1zm20.2 0l1.7.1c0 .1-.1.2-.1.3h-1.6v-.4zm-24.1.2c0 .1-.1.1-.1.1v-.1h.1zm28 0c0 .1.1.1.1.1-.1 0-.1 0-.1-.1zm-28.3 0v.2h-.4v.1h.4l-2.1.2v-.3c.1 0 .7-.1 1.3-.1.3 0 .6 0 .8-.1zm28.6 0c.2.1.5.1.8.1.6 0 1.1.1 1.2.1v.3l-2-.2h.3c.1 0 .1 0 .1-.1h-.4v-.2zm-15.2 0v.5h-1.2c-.2-.2-.4-.3-.6-.5h1.8zm1.8 0h1.7l-.5.5h-1.2v-.5zm-3.7 0l.5.5h-.3c-.2-.2-.4-.3-.7-.5h.5zm5.6 0h.4c-.2.2-.4.3-.7.5h-.3c.2-.2.4-.3.6-.5zm-6.2 0c.2.2.4.3.6.5h-1.5v-.4l.9-.1zm6.8 0l.8.1v.4h-1.5c.3-.2.5-.3.7-.5zm-7.8.1v.4h-.4c0-.2 0-.3-.1-.4h.5zm8.7 0h.5c0 .1 0 .2-.1.4h-.4v-.4zm-9.4 0c0 .1.1.2.1.4h-2.9v-.4h2.8zm10.2 0h2.7v.4h-2.8c0-.2 0-.3.1-.4zm-13.1 0v.4h-1v-.4h1zm15.9 0h1.1v.4h-1.1v-.4zm-24.4.1c-.2.1-.3.2-.4.3h-.3c.1-.1.2-.2.4-.3h.3zm33 0h.3c.1.1.2.2.4.3h-.3c-.1-.1-.3-.2-.4-.3zm-33.5 0c-.1.1-.2.2-.4.3l-3.2.2v-.3l3.6-.2zm34 0l3.6.2v.3l-3.3-.2-.3-.3zm-27.1.1v.7c-.8 0-1.3-.3-1.6-.7h1.6zm20.2 0h1.5c-.2.4-.7.7-1.5.7v-.7zm-26.6 0v.2h-.2c0-.1.1-.1.2-.2zm33 0l.2.2h-.2v-.2zm-37.3.1v.3l-4 .2v-.3l4-.2zm41.5 0l4.1.2v.3l-4.1-.2v-.3zm-35.2.1c-.5.3-1 .6-1.4.7l-.5.1v-.7l1.9-.1zm29 0l1.8.1v.7l-.5-.1c-.4-.1-.9-.4-1.3-.7zm-15.4.1v.5h-.3c-.3-.2-.5-.3-.8-.5h1.1zm1.8 0h1c-.2.2-.5.3-.7.5h-.3v-.5zm-3 0c.2.2.5.3.7.5h-.1c-.3-.1-.6-.3-.9-.5h.3zm4.2 0h.3c-.3.2-.6.4-.9.5h-.1c.2-.2.5-.3.7-.5zm-4.7 0c.3.2.6.4.9.5h-2.6v-.5h1.7zm5.2 0h1.6v.5h-2.5c.3-.1.6-.3.9-.5zm-7.3 0h.3v.5h-.3v-.5zm9 0h.4c0 .2-.1.3-.1.5h-.3v-.5zm-9.3 0c.1.2.1.3.1.5h-3v-.5h2.9zm9.9 0h2.9v.5h-2.9v-.5zm-12.9 0v.5h-1v-.5h1zm15.9 0h1.1v.5h-1.1v-.5zm-24.4 0v.7h-1.4c.3-.2.7-.4 1-.7h.4zm33 0h.4c.3.3.6.5 1 .7h-1.4v-.7zm-41.5 0v.3l-.8.1.7-.4h.1zm49.9 0h.1l.8.4-.9-.1v-.3zm-42 0c-.3.3-.7.5-1 .8h-.1c.3-.3.6-.5.8-.7l.3-.1zm34.2 0l.2.1c.3.2.6.4.9.7h-.1c-.4-.3-.7-.5-1-.8zm-34.6.1c-.3.2-.6.4-.9.7h-.8l-1.4.1v-.7l3.1-.1zm35 0l3.1.1v.7l-1.4-.1h-.8c-.3-.3-.6-.5-.9-.7zm-38.3.1v.7l-4 .2v-.6l4-.3zm41.5 0l4.1.3v.6l-4.1-.2v-.7zm-45.7.3v.6l-2.6.2 1.5-.8h1.1zm49.9 0h1.2l1.4.8-2.6-.2v-.6zm-26.2.1h.1c0 .1.1.1.2.2-.1-.1-.2-.1-.3-.2zm.2 0h.2v.1s-.1 0-.2-.1zm2 0h.1c0 .1-.1.1-.1.1v-.1zm.3 0h.1c-.1.1-.2.1-.3.2l.2-.2zm-2.7 0c.2.1.4.3.6.4v.1h-3.4v-.5h2.8zm3 0h2.7v.5h-3.3v-.1c.2-.1.4-.3.6-.4zm-6.1 0h.2v.5h-.2v-.5zm8.9 0h.3v.5h-.3v-.5zm-9.2 0v.5h-3v-.5h3zm9.8 0h2.9v.5h-3c0-.1 0-.3.1-.5zm-12.9 0v.5h-1v-.5h1zm15.9 0h1.1v.5h-1.1v-.5zm-27.3.4s-.1 0-.1.1v.6h-1.1v-.7h1.2zm38.8 0h1.2v.7h-1.2v-.7zm-20.2 0c.1.1.2.1.2.1h-.2v-.1zm1.5 0v.1h-.2c.1 0 .2 0 .2-.1zm-21.5 0v.7c-1.3.1-2.7.2-4 .4v-.8l4-.3zm41.5 0l4.1.3v.8c-1.4-.2-2.7-.3-4.1-.4v-.7zm-45.7.3v.8c-1.1.1-2.3.2-3.4.3v-.7l.5-.3 2.9-.1zm49.9 0l2.9.1.6.3v.7c-1.1-.1-2.3-.2-3.5-.3v-.8z"/><path d="M600.338 179.414c-1.2.1-2.3.3-3.2.7-.2.1-.3.2-.5.3-.1 0-.1-.1-.2-.1h-.5s0-.1-.1-.1v.1c-.1 0 0 0 0 .1-.1 0-.2.1-.3.2v.3c0 .1.1.2.1.3-.4.5-.7 1-.9 1.7-.1.1-.1.3-.1.5-.1.3 0 .5.2.8V184.514c-.2.3-.3.6-.2.9 0 .1 0 .3.1.5.1.4.3.7.5 1.1-.1 0-.1.1-.1.2 0 .2.1.3.3.3h.1c.1 0 .1 0 .1.1s-.1.1-.1.2v.4c.1.1.2.1.3.2 0 0-.1 0 0 .1h.2c0-.1 0-.1.1-.1h.5c.2.1.3.2.5.2 1.2.6 2.6.8 4.2.7v2.1h-.2c-2.7 0-5.2.1-7.8.3v2.6l.4.3v1.8l-.4.3v2.7c2.3.1 4.6.2 6.9.2v6.6c1 .1 2 .1 2.9 0v-6.6c2.3 0 4.6-.1 6.9-.2v-3l-.5-.2v-1.8l.5-.3v-2.4c-2.7-.2-5.3-.3-8-.3v-2.1c1.6.1 3.1-.1 4.2-.7.2 0 .3-.1.5-.2H607.338v.1H607.638v-.1l.2-.2v-.3c.1-.1.2-.2.2-.3 0-.1 0-.2-.1-.3.4-.4.6-.9.7-1.4.1-.2.1-.4.2-.5 0-.3-.1-.6-.2-.9-.1 0-.1-.1-.1-.1 0-.1 0-.1.1-.2.1-.3.2-.5.2-.8-.1-.2-.1-.4-.2-.5-.1-.7-.4-1.2-.9-1.7.1-.1.2-.2.2-.4s-.1-.4-.3-.4v-.1c-.1 0-.1-.1-.1-.1l-.1.1h-.5s-.1.1-.2.1c-.2-.1-.3-.2-.5-.3-.9-.4-2.1-.7-3.3-.7-.4.1-.8.1-1.2.1-.5 0-.9 0-1.3-.1h-.1zm0 .2h.7c-1.1.3-2.2.7-3.1 1.2-.4-.2-.7-.3-1.1-.4.1 0 .3-.1.4-.1.9-.5 1.9-.7 3.1-.7zm2.6 0c1.2 0 2.3.2 3.3.7.1 0 .2.1.3.1-.3.1-.7.2-1.1.4-.9-.5-2-.9-3.1-1.2h.6zm-1.2.1c.1 0 .3 0 .5.1 1.1.2 2.1.6 3 1-.5.2-1 .5-1.5.7-.7 0-1.3.1-2 .2-.4-.1-.7-.1-1.1-.1 0-.1-.1-.1-.2-.1h-.7c-.6-.2-1.1-.5-1.6-.7.9-.4 2-.8 3.1-1 .1-.1.3-.1.5-.1zm-5.3.8zm10.6 0h-.1.1zm-10.9 0s.1.1.2.1h-.1l-.1-.1zm-.2 0c0 .1.1.1.2.2-.1.1-.3.2-.4.4 0-.1 0-.1-.1-.2 0-.1 0-.2.1-.3 0 0 .1-.1.2-.1zm.8 0c.3.1.7.2 1.1.4-.2 0-.3.1-.4.2-.3-.2-.6-.4-.9-.5.1 0 .1 0 .2-.1zm10 0c0 .1 0 .1.1.1-.3.1-.5.3-.9.5-.1-.1-.2-.2-.4-.2.5-.2.9-.3 1.2-.4zm-10.3.2c.2.1.5.3.9.5-.1 0-.2.1-.2.1-.3-.2-.6-.4-.8-.6h.1zm10.5 0v.1c-.2.2-.4.3-.7.5l-.1-.1c.3-.2.5-.4.8-.5zm-10.7.1c.2.2.5.4.8.6-.2.2-.4.3-.6.5h-.1c-.2-.2-.3-.4-.4-.6-.1 0-.1-.1-.1-.1l.4-.4zm1.8.1c.4.2.8.4 1.3.6-.4 0-.8 0-1.2.1-.1-.1-.3-.2-.4-.3-.1 0-.1-.1-.2-.1.2-.1.3-.2.5-.3zm7.4 0c.1.1.3.2.4.3-.1 0-.1.1-.2.1-.1.1-.2.2-.4.3-.4-.1-.8-.1-1.2-.1.5-.2.9-.4 1.4-.6zm1.5.1c0 .2.2.4.5.4h.1c-.2.1-.3.3-.5.5h-.1l-.5-.5c.2-.1.3-.3.5-.4zm-9.5.3c.1 0 .1.1.2.1.1.1.2.1.3.2h-.4c-.1-.1-.2-.1-.3-.2.1 0 .1-.1.2-.1zm8.5 0c.1 0 .2.1.2.1-.1.1-.2.1-.2.2h-.5c.1-.1.2-.1.3-.2.1 0 .2-.1.2-.1zm-10.2 0v.1c.1.2.3.4.5.6-.2 0-.4.1-.6.2 0-.1-.1-.1-.2-.1-.2 0-.4.1-.4.3 0 0 0 .1.1.1l-.2.2c.2-.5.4-1 .8-1.4zm11.9 0c.4.4.7.9.8 1.4l-.3-.3c-.3-.2-.6-.3-.9-.4.1-.2.3-.4.4-.6v-.1zm-10.5.2l.2.2c-.1 0-.3 0-.4.1h-.2c.1-.1.3-.2.4-.3zm9.1 0c.2.1.3.2.4.3h-.1c-.2-.1-.3-.1-.5-.1.1-.1.2-.1.2-.2zm-6.9.2h.3c.1 0 .3.1.4.1 0 .1-.1.1-.1.2-.3 0-.6.1-.9.2-.2-.2-.4-.3-.7-.5h1zm4.5 0h1.2c-.2.2-.5.3-.7.5-.4-.1-.7-.2-1.1-.3.2-.1.3-.1.5-.2h.1zm-3.8 0zm3.3 0c-.1 0-.2.1-.3.2-.2-.1-.5-.1-.7-.1.3-.1.7-.1 1-.1zm-2.5 0c.1 0 .2 0 .2.1h-.2v-.1zm-2.7 0c.2.2.5.4.8.5-.2.1-.3.1-.4.1-.3-.2-.6-.3-.8-.5.1 0 .3-.1.4-.1zm7.1 0c.2 0 .3.1.4.1-.2.2-.5.3-.7.5-.2 0-.3 0-.4-.1.2-.1.5-.3.7-.5zm-7.7.1c.2.2.5.4.8.6-.4.1-.7.3-1.1.4l-.3-.3c-.2-.1-.3-.3-.5-.4 0-.1.1-.1.1-.1.1 0 .2 0 .4-.1.2 0 .4-.1.6-.1zm8.3 0c.2 0 .4.1.6.1.2.1.3.1.5.1v.1c-.2.1-.3.3-.5.4l-.3.3c-.3-.1-.7-.3-1.1-.4.3-.2.6-.4.8-.6zm-4.1 0s.1 0 .2.1c.3 0 .6 0 .9.1-.4.2-.8.4-1.1.6-.3-.2-.6-.3-.9-.5.1 0 .1-.1.1-.1v-.1h.5c.1-.1.2-.1.3-.1zm1.3.2c.4.1.8.2 1.1.3-.4.3-.9.6-1.4.9-.1 0-.2-.1-.3-.1-.2-.1-.4-.3-.6-.4.4-.2.8-.5 1.2-.7zm-3 .1c0 .2.2.3.4.3.1 0 .3 0 .4-.1.2.1.5.2.7.4-.2.1-.4.3-.6.4-.1 0-.1.1-.2.1v-.1c0-.2-.1-.4-.3-.4-.2 0-.3.1-.3.2l-.9-.6c.2-.1.5-.1.8-.2zm-3.8 0c-.6.6-1.1 1.3-1.3 2-.1-.3-.1-.6-.1-1 0 0 0-.1.1-.1 0-.2.1-.3.2-.3h.3c.2 0 .3-.1.3-.3v-.1c.1-.1.3-.1.5-.2zm11 0c.3.1.6.3.8.4.2.2.4.3.5.5v.1c0 .4 0 .7-.1 1-.2-.7-.6-1.4-1.2-2zm-10.9.1c.2.1.3.3.5.4l.3.3-.6.3c-.7.3-1.1.6-1.5 1 .2-.7.7-1.4 1.3-2zm10.7 0c.6.6 1.1 1.3 1.3 2.1v-.1c-.3-.3-.6-.6-1.1-.8v-.2c0-.2-.1-.3-.3-.3-.2 0-.3 0-.3.1-.1 0-.2-.1-.3-.1 0-.1.1-.2.2-.3.2-.1.3-.3.5-.4zm-8 .1c.3.2.7.5 1 .7v.1c0 .2.1.3.3.3 0 .1-.1.1-.2.2-.5-.4-1-.8-1.5-1.1.1-.1.3-.1.4-.2zm5.3 0c.1.1.3.1.4.2-.5.3-1 .7-1.5 1.1-.1-.1-.3-.2-.4-.3.5-.3 1-.7 1.5-1zm-5.9.2c.5.4 1.1.7 1.6 1.1-.3.2-.5.4-.8.6h-.2c-.6-.4-1.2-.9-1.7-1.3.4-.1.8-.3 1.1-.4zm6.5 0c.4.1.7.3 1.1.4-.5.4-1 .9-1.7 1.3h-.2c-.2-.2-.5-.4-.8-.6.6-.4 1.1-.7 1.6-1.1zm-3.2.3c.2.1.4.3.7.4 0 .1.1.1.2.1-.2.1-.3.2-.4.3-.2-.1-.3-.2-.5-.2s-.4.1-.6.2l-.3-.3s.1 0 .2-.1c.2-.1.4-.3.7-.4zm-4.5.2c.4.4 1 .8 1.5 1.2h-3.5c.3-.3.8-.6 1.3-.9.2-.1.5-.2.7-.3zm8.9 0c.2 0 .3.1.4.1v.1c0 .3.2.4.4.4.1 0 .2 0 .2-.1.4.2.8.5 1 .7h-3.5c.6-.4 1.1-.8 1.5-1.2zm-11.4.4v.3-.3zm13.9 0v.3-.3zm-8 0c.1.1.3.2.4.3-.1.1-.2.2-.2.3-.2-.1-.4-.2-.5-.4.1 0 .2-.1.3-.2zm2.1 0c.1.1.2.2.3.2-.1.2-.3.3-.5.4 0-.1-.1-.2-.2-.3.1-.1.3-.2.4-.3zm-2.6.3c.2.2.4.3.6.4v.1h-1.3c.3-.1.5-.3.7-.5zm3.1 0c.2.2.5.4.7.5h-1.3v-.1c.2-.1.4-.2.6-.4zm-8.1.7h3.8c-.7.5-1.2 1-1.7 1.4-.2-.1-.5-.2-.7-.4-.6-.3-1.1-.6-1.4-1zm4.2 0h1.4v.2c-.2.1-.4.3-.6.4-.2-.2-.5-.4-.8-.6zm3.3 0h1.4c-.3.2-.5.4-.8.6-.2-.1-.4-.3-.6-.4v-.2zm1.9 0h3.7c-.3.4-.8.7-1.4 1-.2.2-.4.3-.7.4-.5-.4-1-.9-1.6-1.4zm-5.4.1l.9.6c-.5.4-1.1.8-1.6 1.1-.3-.1-.7-.2-1.1-.4.5-.4 1.1-.9 1.8-1.3zm5.1 0c.7.4 1.3.9 1.8 1.3-.4.2-.7.3-1.1.4-.5-.3-1-.7-1.6-1.1l.9-.6zm-9.2 0c.4.4.8.8 1.5 1.1l.6.3c-.1.1-.2.1-.3.2l-.5.5c-.1-.2-.3-.3-.4-.5.1-.1.2-.2.2-.3 0-.3-.3-.6-.6-.6 0 0-.1.1-.2.1-.1-.3-.2-.5-.3-.8zm13.3 0c-.2.7-.7 1.5-1.3 2.1l-.5-.5c-.1-.1-.2-.1-.2-.2l.6-.3c.6-.3 1.1-.7 1.4-1.1zm-13.4.1c.1.3.2.5.3.8-.1.1-.2.2-.2.4 0 .1.1.2.2.3-.2-.1-.3-.2-.3-.3-.1-.1-.1-.1-.1-.2 0-.3 0-.6.1-1zm13.5 0c.1.4.1.7.1 1v.2c-.1.1-.3.3-.5.4-.2.2-.5.3-.8.4.6-.6 1-1.3 1.2-2zm-7.6.1c0 .2.1.3.2.4-.1.1-.3.1-.4.2-.1 0-.2-.1-.3-.2.1-.1.3-.2.5-.4zm1.7 0c.2.2.4.3.5.4-.1.1-.2.2-.3.2-.1-.1-.3-.1-.4-.2.1-.1.2-.2.2-.4zm-7.8.4v.3V185.114zm13.9 0V185.414v-.3zm-7.5.1h.2v.5c-.1 0-.2-.1-.3-.2-.1 0-.2 0-.2-.1.1-.1.2-.2.3-.2zm1.1 0c.1 0 .2.1.4.2-.1.1-.2.1-.2.1-.1.1-.2.2-.4.2v-.5h.2zm-2.1 0c.2.1.3.1.4.2-.5.4-1 .7-1.5 1-.1 0-.3-.1-.4-.1.5-.3 1-.7 1.5-1.1zm3.1 0c.5.4 1 .8 1.5 1.1-.1 0-.3.1-.4.1-.5-.3-1-.6-1.5-1 .1-.1.3-.1.4-.2zm-2.6.3c.1.1.2.1.3.2.1 0 .2.1.4.2v.3c-.3.2-.7.4-1 .5-.4-.1-.7-.1-1.1-.2.4-.3.9-.7 1.4-1zm2.1 0c.5.3 1 .7 1.4 1-.3.1-.7.1-1.1.2-.1 0-.2-.1-.3-.1.1 0 .1-.1.1-.1 0-.2-.2-.4-.4-.4-.1 0-.2.1-.3.1h-.1v-.3c.2-.1.3-.2.4-.2.1-.1.2-.1.3-.2zm-5.5.4c.4.2.7.3 1.1.5-.3.2-.6.4-.8.5-.2 0-.4 0-.6-.1-.2 0-.3 0-.4-.1h-.1c.2-.1.3-.3.5-.5l.3-.3zm8.9 0l.3.3c.2.2.3.4.5.5-.2.1-.3.1-.5.1-.2.1-.4.1-.6.1-.2-.1-.5-.3-.8-.5.4-.2.8-.3 1.1-.5zm-11.2.2l.3.3c.3.1.6.3 1 .4l-.5.5v.1-.2c0-.2-.1-.3-.3-.3h-.1c-.2-.3-.3-.5-.4-.8zm13.5 0c-.1.4-.3.8-.6 1.1 0 0-.1-.1-.2-.1l-.1.1c-.1-.2-.2-.3-.3-.4.3-.1.6-.3.9-.4l.3-.3zm-12.6.1c.1.1.2.3.4.4-.4-.1-.7-.2-.9-.4.1 0 .1.1.2.1s.2-.1.3-.1zm5.5.2v.5c-.3-.1-.5-.1-.7-.1.2-.2.4-.3.7-.4zm.7 0h.1s-.1 0-.1.1c0 .2.2.3.4.3-.1 0-.2.1-.4.1v-.5zm-3.5 0c.1 0 .2.1.4.1-.3.2-.6.4-.8.5h-.4c.2-.2.5-.4.8-.6zm6.4 0c.2.2.5.4.7.6h-.4c-.2-.1-.5-.3-.7-.5.1 0 .2-.1.4-.1zm-5.9.2c.4.1.7.2 1.1.2-.1.1-.3.2-.5.3-.4 0-.9 0-1.3-.1.3-.1.5-.3.7-.4zm5.3 0c.2.1.5.3.7.4-.4.1-.9.1-1.3.1-.2-.1-.3-.2-.5-.3.4 0 .7-.1 1.1-.2zm-1.6.1l.1.1h-.3c.1 0 .1 0 .2-.1zm-6.4.1l.1.1c.2.1.4.3.6.4-.3.3-.6.5-.8.6-.1-.1-.3-.2-.4-.4l.1-.1c.1-.2.2-.3.4-.6zm10.7 0c.1.2.2.3.3.4-.1.1-.1.2-.1.4 0 0 0 .1.1.2-.1 0-.1.1-.2.1-.2-.1-.4-.3-.7-.6.2-.1.3-.3.5-.4.1 0 .1-.1.1-.1zm-6.7.1c.3 0 .5.1.7.1-.3 0-.7.1-1 .1.1-.1.2-.2.3-.2zm2.7 0c.1 0 .2.1.3.2-.3 0-.7-.1-1-.1.2 0 .4-.1.7-.1zm-6.3 0c.1.1.1.1.2.1s.3 0 .4.1c-.1 0-.1.1-.2.1s-.3-.1-.4-.3zm9.9 0c-.1.2-.2.3-.4.3 0 0-.1-.1-.2-.1.2-.1.3-.1.5-.1 0 0 .1 0 .1-.1zm-9.1.2h.4c-.1.1-.2.2-.3.2l-.2.2-.2-.2c.1 0 .2-.1.3-.2zm8.3 0h.1c0 .1.1.2.2.2l-.2.2c0-.1-.1-.1-.2-.2-.1 0-.2-.1-.3-.2h.4zm-4.5 0v1.9h-.1c-1.1-.2-2.2-.6-3.1-1.1.5-.2 1-.4 1.6-.7.5 0 1 0 1.6-.1zm.7 0c.6.1 1.1.1 1.7.1.5.3 1 .5 1.5.7-.9.5-1.9.9-3 1.1h-.2v-1.9zm-3.9.1h1.2c-.5.3-.9.5-1.3.6-.2-.1-.3-.2-.5-.2.1-.1.1-.1.2-.1.1-.1.3-.2.4-.3zm7.1 0c.2.1.3.2.4.3.1 0 .1 0 .2.1-.1 0-.3.1-.4.2-.5-.1-.9-.3-1.4-.6h1.2zm-8.1.2c0 .1.1.1.2.2-.4.2-.7.3-.9.5 0 0 0-.1-.1-.1.2-.1.5-.3.8-.6zm9.1 0c.3.3.6.5.8.6l-.1.1c-.2-.2-.5-.3-.8-.5 0-.1.1-.1.1-.2zm-8.8.2c.1.1.2.2.4.3-.4.1-.8.3-1.1.3h-.2l.9-.6zm8.5 0c.4.2.6.4.9.6h-.1c-.4 0-.7-.2-1.2-.3.2-.1.3-.2.4-.3zm-10.2.1c.1.1.3.2.4.3l-.2.2v.1c-.1-.1-.2-.1-.2-.2-.1 0-.1-.1-.1-.2.1-.1.1-.2.1-.2zm11.7.2s.1.1.2.1h.1v.1l-.2.2v-.1c-.1 0-.2-.1-.3-.2.1 0 .1-.1.2-.1zm-9.5.1c.9.5 2 .9 3.1 1.1-1.4.1-2.8-.1-3.8-.6-.1-.1-.3-.1-.4-.2.4 0 .7-.2 1.1-.3zm7.5 0c.4.1.8.3 1.1.3-.1.1-.2.1-.3.2-1.1.5-2.5.7-3.9.6 1.1-.2 2.2-.6 3.1-1.1zm-9.2.1s.1 0 .1.1c-.1 0-.2 0-.2.1 0-.1.1-.1.1-.2zm10.9 0l.2.2c-.1-.1-.2-.1-.2-.1v-.1zm-10.7.1v.1-.1zm10.5 0v.1h.1-.1v-.1z"/><path d="M388.438 167.714c-.1 0-.2.1-.2.1-.1.1 0 .4.1.4s-.2.1-.3.2v.3l-.1-.2-.2-.3s.1-.3 0-.4c-.1-.1-.3-.1-.3 0-.1.2-.1.3 0 .4 0 0-.2.1-.3.2-.1.1 0 .9 0 .9h.2c-.2.4-.1.8 0 1.1h-.5v.3h.2v.2l-13.3 2.8v-.2h-.1c-.1-.2-.1-.5-.2-.6-.2 0-.3-.1-.4.1 0 0-.1.1-.1 0 .1-.5-.4-1-.9-.9h-.4c0 .1.1 1.2 0 1.4h-.2l.2.4v.2l-1.4.3v.8l.2.2 1.3 1.7v1.2h-.5v.7l.2.2v.4h.3v10.2l-.3.2v.2l-.2.2v.2h-.4v.4l.4.4v1.4l-3.9 1.8v-.2l.1-.1-.3-.2h-.3v-.2c.1 0 .2 0 .2-.1v-.1s.1 0 .2-.1v-.1h-1.1v.1c.1.1.2.1.3.1-.1 0-.1.1-.1.1 0 .1.2.1.3.1v.2h-.3l-.4.2.1.1V195.014l-1.4-.6v-.6l.1-.1-.3-.2h-.3v-.2c.1 0 .2-.1.2-.1 0-.1 0-.1-.1-.1.1-.1.2-.1.3-.1v-.1h-1.1v.1c.1 0 .2 0 .3.1-.1 0-.1 0-.1.1 0 0 .2.1.3.1v.2h-.4l-.3.2.1.1v.6h-2.6v-.1l-.3-.1h-.3v-.3c.1 0 .2 0 .3-.1l-.1-.1c.1 0 .2 0 .2-.1.1 0 .1-.1 0-.1h-1s-.1.1 0 .1c.1.1.1.1.2.1 0 0-.1.1 0 .1 0 .1.1.1.2.1v.3h-.3l-.3.1v.1h-1.4v-.6l.1-.1-.3-.2h-.3v-.2c.1 0 .2-.1.3-.1 0-.1-.1-.1-.1-.1.1-.1.2-.1.2-.1.1-.1.1-.1 0-.1h-1c-.1 0-.1 0 0 .1 0 0 .1 0 .2.1 0 0-.1 0 0 .1 0 0 .1.1.2.1v.2h-.3l-.3.2.1.1v1.6l-.2.6h-.2v.4h.2v4.8h-.2v1.3h64.4v-1.3h-.2v-4.8h.2v-.4h-.2l-.2-.6v-1.6l.1-.1-.3-.2h-.3v-.2c.1 0 .2-.1.2-.1.1-.1 0-.1 0-.1 0-.1.1-.1.2-.1.1-.1 0-.1 0-.1h-1c-.1 0-.1 0 0 .1 0 0 .1 0 .2.1 0 0-.1 0-.1.1.1 0 .2.1.3.1v.2h-.3l-.3.2.1.1v.6h-1.5l.1-.1-.3-.1h-.3v-.3c.1 0 .2 0 .2-.1 0 0 0-.1-.1-.1.1 0 .2 0 .3-.1v-.1h-1.1v.1c.1.1.2.1.3.1-.1 0-.1.1-.1.1 0 .1.2.1.3.1v.3h-.4l-.3.1.1.1h-2.6v-.7l-.2-.2h-.4v-.2c.1 0 .3-.1.3-.1 0-.1 0-.1-.1-.1.1-.1.2-.1.3-.1v-.1h-1.1v.1c.1 0 .2 0 .2.1v.1s.1.1.2.1v.2h-.3l-.3.2.1.1v.6l-1.4.6v-.7l-.3-.1h-.3v-.2c.1-.1.3-.1.3-.2l-.1-.1c.1 0 .2 0 .2-.1.1 0 .1 0 0-.1h-1c0 .1-.1.1 0 .1.1.1.2.1.2.1s-.1.1 0 .1c0 .1.1.1.2.2v.2h-.3l-.3.1.1.2v.1l-3.9-1.8v-1.4l.4-.4v-.4h-.4v-.2l-.3-.2v-.2l-.2-.2v-10.2h.2v-.4l.3-.2v-.7h-.5v-1.2l1.3-1.7.2-.2v-.8l-1.4-.3v-.2l.2-.4h-.2c-.1-.2 0-1.3 0-1.4h-.4c-.5-.1-1 .4-.9.9 0 .1-.1 0-.1 0-.2-.2-.2-.1-.4-.1-.1.1-.2.4-.2.6h-.1v.2l-13.3-2.8v-.2h.2v-.3h-.4l-.1-.1c0-.3-.1-.7 0-1.2.3.1.3-.1.1-.3 0-.3-.1-.5-.3-.6.1-.3 0-.4-.2-.4s-.2.3-.1.4l-.2.1c0 .1-.1.1-.1.3l-.1-.1v-.3h-.3c.1-.2.1-.4 0-.4 0-.1-.1-.1-.1-.1z"/></g></g></g></svg>