<svg width="26" height="21" viewBox="0 0 26 21" xmlns="http://www.w3.org/2000/svg"><title>Bird</title><desc>Created with Sketch.</desc><defs><filter x="-50%" y="-50%" width="200%" height="200%" filterUnits="objectBoundingBox" id="a"><feOffset in="SourceAlpha" result="shadowOffsetInner1"/><feGaussianBlur stdDeviation="1" in="shadowOffsetInner1" result="shadowBlurInner1"/><feComposite in="shadowBlurInner1" in2="SourceAlpha" operator="arithmetic" k2="-1" k3="1" result="shadowInnerInner1"/><feColorMatrix values="0 0 0 0 0 0 0 0 0 0 0 0 0 0 0 0 0 0 0.35 0" in="shadowInnerInner1" result="shadowMatrixInner1"/><feMerge><feMergeNode in="SourceGraphic"/><feMergeNode in="shadowMatrixInner1"/></feMerge></filter></defs><path d="M1144 65.115c-.958.412-2.39.96-3.467 1.085 1.104-.64 2.2-2.15 2.6-3.36-.84.485-1.808 1.138-2.796 1.49l-.67-.65c-.972-1.005-1.933-1.68-3.467-1.68-2.945 0-5.2 2.186-5.2 5.04 0 .335.04.588.095.803l-.095.037c-5.2 0-8.637-1.072-11.267-4.2-.46.763-.866 1.572-.866 2.52 0 1.794 1.168 3.27 2.6 4.2-.875-.028-1.882-.455-2.6-.84 0 2.503 3.628 5.403 6.066 5.88-.866.84-4.006.062-4.333 0 .68 2.055 2.868 3.317 5.2 3.36-1.824 1.384-4.027 2.108-6.527 2.108-.43 0-.855-.024-1.273-.07 2.36 1.465 5.653 2.162 8.667 2.162 9.812 0 14.733-7.448 14.733-14.28 0-.225.007-.618 0-.84 1.04-.73 1.882-1.73 2.6-2.765z" transform="translate(-1118 -62)" filter="url(#a)" fill="#F5F5F5" fill-rule="evenodd"/></svg>