<?xml version="1.0" encoding="UTF-8" standalone="no"?>
<svg width="26px" height="21px" viewBox="0 0 26 21" version="1.1" xmlns="http://www.w3.org/2000/svg" xmlns:xlink="http://www.w3.org/1999/xlink" xmlns:sketch="http://www.bohemiancoding.com/sketch/ns">
    <!-- Generator: Sketch 3.2 (9961) - http://www.bohemiancoding.com/sketch -->
    <title>Bird</title>
    <desc>Created with Sketch.</desc>
    <defs>
        <filter x="-50%" y="-50%" width="200%" height="200%" filterUnits="objectBoundingBox" id="filter-1">
            <feOffset dx="0" dy="0" in="SourceAlpha" result="shadowOffsetInner1"></feOffset>
            <feGaussianBlur stdDeviation="1" in="shadowOffsetInner1" result="shadowBlurInner1"></feGaussianBlur>
            <feComposite in="shadowBlurInner1" in2="SourceAlpha" operator="arithmetic" k2="-1" k3="1" result="shadowInnerInner1"></feComposite>
            <feColorMatrix values="0 0 0 0 0   0 0 0 0 0   0 0 0 0 0  0 0 0 0.35 0" in="shadowInnerInner1" type="matrix" result="shadowMatrixInner1"></feColorMatrix>
            <feMerge>
                <feMergeNode in="SourceGraphic"></feMergeNode>
                <feMergeNode in="shadowMatrixInner1"></feMergeNode>
            </feMerge>
        </filter>
    </defs>
    <g id="Page-1" stroke="none" stroke-width="1" fill="none" fill-rule="evenodd" sketch:type="MSPage">
        <g id="desktop" sketch:type="MSLayerGroup" transform="translate(-1118.000000, -62.000000)" filter="url(#filter-1)" fill="#F5F5F5">
            <g id="home" sketch:type="MSShapeGroup">
                <g id="share" transform="translate(1118.000000, 62.000000)">
                    <g id="1421380162_twitter">
                        <path d="M26,3.11472 C25.0423333,3.52716 23.6114667,4.07484 22.5333333,4.2 C23.6366,3.55992 24.7338,2.04876 25.1333333,0.84 C24.2918,1.32468 23.3246,1.9782 22.3366,2.32932 L21.6666667,1.68 C20.6951333,0.67452 19.734,0 18.2,0 C15.2550667,0 13,2.18568 13,5.04 C13,5.37516 13.0407333,5.628 13.0953333,5.84304 L13,5.88 C7.8,5.88 4.3628,4.80816 1.73333333,1.68 C1.27313333,2.44272 0.866666667,3.25248 0.866666667,4.2 C0.866666667,5.99424 2.03493333,7.47096 3.46666667,8.4 C2.5922,8.37228 1.58513333,7.94472 0.866666667,7.56 C0.866666667,10.0632 4.49453333,12.96288 6.93333333,13.44 C6.06666667,14.28 2.92673333,13.50216 2.6,13.44 C3.27946667,15.49548 5.4678,16.75716 7.8,16.8 C5.97566667,18.18432 3.7726,18.9084 1.27313333,18.9084 C0.841533333,18.9084 0.417733333,18.88404 0,18.83784 C2.35993333,20.3028 5.65326667,21 8.66666667,21 C18.4790667,21 23.4,13.55172 23.4,6.72 C23.4,6.49488 23.4069333,6.10176 23.4,5.88 C24.4408667,5.15088 25.2824,4.15128 26,3.11472 L26,3.11472 Z" id="Bird"></path>
                    </g>
                </g>
            </g>
        </g>
    </g>
</svg>